<svg width="221" height="48" viewBox="0 0 221 48" fill="none" xmlns="http://www.w3.org/2000/svg">
<path d="M65.5122 37.8293V39H64.3415V37.8293H65.5122ZM65.5122 36.6585V37.8293H64.3415V36.6585H65.5122ZM65.5122 35.4878V36.6585H64.3415V35.4878H65.5122ZM65.5122 34.3171V35.4878H64.3415V34.3171H65.5122ZM65.5122 33.1463V34.3171H64.3415V33.1463H65.5122ZM65.5122 31.9756V33.1463H64.3415V31.9756H65.5122ZM65.5122 30.8049V31.9756H64.3415V30.8049H65.5122ZM65.5122 29.6341V30.8049H64.3415V29.6341H65.5122ZM65.5122 28.4634V29.6341H64.3415V28.4634H65.5122ZM65.5122 27.2927V28.4634H64.3415V27.2927H65.5122ZM65.5122 26.122V27.2927H64.3415V26.122H65.5122ZM65.5122 24.9512V26.122H64.3415V24.9512H65.5122ZM65.5122 23.7805V24.9512H64.3415V23.7805H65.5122ZM65.5122 22.6098V23.7805H64.3415V22.6098H65.5122ZM65.5122 21.439V22.6098H64.3415V21.439H65.5122ZM66.6829 21.439V22.6098H65.5122V21.439H66.6829ZM66.6829 22.6098V23.7805H65.5122V22.6098H66.6829ZM66.6829 23.7805V24.9512H65.5122V23.7805H66.6829ZM66.6829 24.9512V26.122H65.5122V24.9512H66.6829ZM66.6829 26.122V27.2927H65.5122V26.122H66.6829ZM66.6829 27.2927V28.4634H65.5122V27.2927H66.6829ZM66.6829 28.4634V29.6341H65.5122V28.4634H66.6829ZM67.8537 29.6341V30.8049H66.6829V29.6341H67.8537ZM67.8537 30.8049V31.9756H66.6829V30.8049H67.8537ZM67.8537 31.9756V33.1463H66.6829V31.9756H67.8537ZM67.8537 33.1463V34.3171H66.6829V33.1463H67.8537ZM67.8537 34.3171V35.4878H66.6829V34.3171H67.8537ZM67.8537 35.4878V36.6585H66.6829V35.4878H67.8537ZM67.8537 36.6585V37.8293H66.6829V36.6585H67.8537ZM67.8537 37.8293V39H66.6829V37.8293H67.8537ZM69.0244 37.8293V39H67.8537V37.8293H69.0244ZM70.1951 37.8293V39H69.0244V37.8293H70.1951ZM70.1951 36.6585V37.8293H69.0244V36.6585H70.1951ZM70.1951 35.4878V36.6585H69.0244V35.4878H70.1951ZM70.1951 34.3171V35.4878H69.0244V34.3171H70.1951ZM70.1951 33.1463V34.3171H69.0244V33.1463H70.1951ZM70.1951 31.9756V33.1463H69.0244V31.9756H70.1951ZM70.1951 30.8049V31.9756H69.0244V30.8049H70.1951ZM70.1951 29.6341V30.8049H69.0244V29.6341H70.1951ZM69.0244 29.6341V30.8049H67.8537V29.6341H69.0244ZM69.0244 28.4634V29.6341H67.8537V28.4634H69.0244ZM69.0244 30.8049V31.9756H67.8537V30.8049H69.0244ZM69.0244 31.9756V33.1463H67.8537V31.9756H69.0244ZM69.0244 33.1463V34.3171H67.8537V33.1463H69.0244ZM69.0244 34.3171V35.4878H67.8537V34.3171H69.0244ZM69.0244 35.4878V36.6585H67.8537V35.4878H69.0244ZM69.0244 36.6585V37.8293H67.8537V36.6585H69.0244ZM66.6829 37.8293V39H65.5122V37.8293H66.6829ZM66.6829 36.6585V37.8293H65.5122V36.6585H66.6829ZM66.6829 35.4878V36.6585H65.5122V35.4878H66.6829ZM66.6829 34.3171V35.4878H65.5122V34.3171H66.6829ZM66.6829 33.1463V34.3171H65.5122V33.1463H66.6829ZM66.6829 31.9756V33.1463H65.5122V31.9756H66.6829ZM66.6829 30.8049V31.9756H65.5122V30.8049H66.6829ZM66.6829 29.6341V30.8049H65.5122V29.6341H66.6829ZM65.5122 9.73171V10.9024H64.3415V9.73171H65.5122ZM65.5122 10.9024V12.0732H64.3415V10.9024H65.5122ZM65.5122 12.0732V13.2439H64.3415V12.0732H65.5122ZM65.5122 13.2439V14.4146H64.3415V13.2439H65.5122ZM65.5122 14.4146V15.5854H64.3415V14.4146H65.5122ZM65.5122 15.5854V16.7561H64.3415V15.5854H65.5122ZM65.5122 16.7561V17.9268H64.3415V16.7561H65.5122ZM65.5122 17.9268V19.0976H64.3415V17.9268H65.5122ZM65.5122 19.0976V20.2683H64.3415V19.0976H65.5122ZM65.5122 20.2683V21.439H64.3415V20.2683H65.5122ZM69.0244 9.73171V10.9024H67.8537V9.73171H69.0244ZM69.0244 10.9024V12.0732H67.8537V10.9024H69.0244ZM69.0244 12.0732V13.2439H67.8537V12.0732H69.0244ZM69.0244 13.2439V14.4146H67.8537V13.2439H69.0244ZM69.0244 14.4146V15.5854H67.8537V14.4146H69.0244ZM69.0244 15.5854V16.7561H67.8537V15.5854H69.0244ZM69.0244 17.9268V19.0976H67.8537V17.9268H69.0244ZM69.0244 19.0976V20.2683H67.8537V19.0976H69.0244ZM69.0244 20.2683V21.439H67.8537V20.2683H69.0244ZM69.0244 21.439V22.6098H67.8537V21.439H69.0244ZM69.0244 22.6098V23.7805H67.8537V22.6098H69.0244ZM69.0244 23.7805V24.9512H67.8537V23.7805H69.0244ZM69.0244 24.9512V26.122H67.8537V24.9512H69.0244ZM70.1951 26.122V27.2927H69.0244V26.122H70.1951ZM70.1951 27.2927V28.4634H69.0244V27.2927H70.1951ZM70.1951 28.4634V29.6341H69.0244V28.4634H70.1951ZM70.1951 24.9512V26.122H69.0244V24.9512H70.1951ZM70.1951 23.7805V24.9512H69.0244V23.7805H70.1951ZM70.1951 22.6098V23.7805H69.0244V22.6098H70.1951ZM70.1951 21.439V22.6098H69.0244V21.439H70.1951ZM70.1951 20.2683V21.439H69.0244V20.2683H70.1951ZM70.1951 19.0976V20.2683H69.0244V19.0976H70.1951ZM70.1951 17.9268V19.0976H69.0244V17.9268H70.1951ZM70.1951 16.7561V17.9268H69.0244V16.7561H70.1951ZM70.1951 15.5854V16.7561H69.0244V15.5854H70.1951ZM70.1951 14.4146V15.5854H69.0244V14.4146H70.1951ZM69.0244 16.7561V17.9268H67.8537V16.7561H69.0244ZM70.1951 13.2439V14.4146H69.0244V13.2439H70.1951ZM70.1951 12.0732V13.2439H69.0244V12.0732H70.1951ZM70.1951 10.9024V12.0732H69.0244V10.9024H70.1951ZM70.1951 9.73171V10.9024H69.0244V9.73171H70.1951ZM67.8537 9.73171V10.9024H66.6829V9.73171H67.8537ZM66.6829 9.73171V10.9024H65.5122V9.73171H66.6829ZM66.6829 10.9024V12.0732H65.5122V10.9024H66.6829ZM67.8537 10.9024V12.0732H66.6829V10.9024H67.8537ZM67.8537 12.0732V13.2439H66.6829V12.0732H67.8537ZM67.8537 13.2439V14.4146H66.6829V13.2439H67.8537ZM67.8537 14.4146V15.5854H66.6829V14.4146H67.8537ZM67.8537 15.5854V16.7561H66.6829V15.5854H67.8537ZM67.8537 16.7561V17.9268H66.6829V16.7561H67.8537ZM67.8537 17.9268V19.0976H66.6829V17.9268H67.8537ZM66.6829 19.0976V20.2683H65.5122V19.0976H66.6829ZM66.6829 20.2683V21.439H65.5122V20.2683H66.6829ZM66.6829 17.9268V19.0976H65.5122V17.9268H66.6829ZM66.6829 16.7561V17.9268H65.5122V16.7561H66.6829ZM66.6829 15.5854V16.7561H65.5122V15.5854H66.6829ZM66.6829 14.4146V15.5854H65.5122V14.4146H66.6829ZM66.6829 13.2439V14.4146H65.5122V13.2439H66.6829ZM66.6829 12.0732V13.2439H65.5122V12.0732H66.6829ZM67.8537 19.0976V20.2683H66.6829V19.0976H67.8537ZM67.8537 20.2683V21.439H66.6829V20.2683H67.8537ZM67.8537 21.439V22.6098H66.6829V21.439H67.8537ZM67.8537 22.6098V23.7805H66.6829V22.6098H67.8537ZM67.8537 23.7805V24.9512H66.6829V23.7805H67.8537ZM67.8537 24.9512V26.122H66.6829V24.9512H67.8537ZM67.8537 26.122V27.2927H66.6829V26.122H67.8537ZM67.8537 27.2927V28.4634H66.6829V27.2927H67.8537ZM67.8537 28.4634V29.6341H66.6829V28.4634H67.8537ZM69.0244 27.2927V28.4634H67.8537V27.2927H69.0244ZM69.0244 26.122V27.2927H67.8537V26.122H69.0244ZM71.3659 23.7805V24.9512H70.1951V23.7805H71.3659ZM72.5366 23.7805V24.9512H71.3659V23.7805H72.5366ZM72.5366 24.9512V26.122H71.3659V24.9512H72.5366ZM71.3659 24.9512V26.122H70.1951V24.9512H71.3659ZM71.3659 21.439V22.6098H70.1951V21.439H71.3659ZM72.5366 21.439V22.6098H71.3659V21.439H72.5366ZM71.3659 26.122V27.2927H70.1951V26.122H71.3659ZM72.5366 26.122V27.2927H71.3659V26.122H72.5366ZM72.5366 22.6098V23.7805H71.3659V22.6098H72.5366ZM71.3659 22.6098V23.7805H70.1951V22.6098H71.3659ZM71.3659 9.73171V10.9024H70.1951V9.73171H71.3659ZM72.5366 9.73171V10.9024H71.3659V9.73171H72.5366ZM72.5366 10.9024V12.0732H71.3659V10.9024H72.5366ZM71.3659 10.9024V12.0732H70.1951V10.9024H71.3659ZM71.3659 12.0732V13.2439H70.1951V12.0732H71.3659ZM72.5366 12.0732V13.2439H71.3659V12.0732H72.5366ZM72.5366 13.2439V14.4146H71.3659V13.2439H72.5366ZM71.3659 13.2439V14.4146H70.1951V13.2439H71.3659ZM71.3659 14.4146V15.5854H70.1951V14.4146H71.3659ZM72.5366 14.4146V15.5854H71.3659V14.4146H72.5366ZM71.3659 37.8293V39H70.1951V37.8293H71.3659ZM72.5366 37.8293V39H71.3659V37.8293H72.5366ZM72.5366 36.6585V37.8293H71.3659V36.6585H72.5366ZM72.5366 35.4878V36.6585H71.3659V35.4878H72.5366ZM72.5366 34.3171V35.4878H71.3659V34.3171H72.5366ZM72.5366 33.1463V34.3171H71.3659V33.1463H72.5366ZM71.3659 33.1463V34.3171H70.1951V33.1463H71.3659ZM71.3659 34.3171V35.4878H70.1951V34.3171H71.3659ZM71.3659 35.4878V36.6585H70.1951V35.4878H71.3659ZM71.3659 36.6585V37.8293H70.1951V36.6585H71.3659ZM73.7073 21.439V22.6098H72.5366V21.439H73.7073ZM74.878 21.439V22.6098H73.7073V21.439H74.878ZM76.0488 21.439V22.6098H74.878V21.439H76.0488ZM77.2195 20.2683V21.439H76.0488V20.2683H77.2195ZM78.3902 19.0976V20.2683H77.2195V19.0976H78.3902ZM78.3902 17.9268V19.0976H77.2195V17.9268H78.3902ZM78.3902 16.7561V17.9268H77.2195V16.7561H78.3902ZM77.2195 15.5854V16.7561H76.0488V15.5854H77.2195ZM76.0488 14.4146V15.5854H74.878V14.4146H76.0488ZM74.878 14.4146V15.5854H73.7073V14.4146H74.878ZM73.7073 14.4146V15.5854H72.5366V14.4146H73.7073ZM73.7073 9.73171V10.9024H72.5366V9.73171H73.7073ZM74.878 9.73171V10.9024H73.7073V9.73171H74.878ZM76.0488 9.73171V10.9024H74.878V9.73171H76.0488ZM77.2195 9.73171V10.9024H76.0488V9.73171H77.2195ZM77.2195 10.9024V12.0732H76.0488V10.9024H77.2195ZM77.2195 12.0732V13.2439H76.0488V12.0732H77.2195ZM77.2195 13.2439V14.4146H76.0488V13.2439H77.2195ZM76.0488 13.2439V14.4146H74.878V13.2439H76.0488ZM76.0488 12.0732V13.2439H74.878V12.0732H76.0488ZM74.878 12.0732V13.2439H73.7073V12.0732H74.878ZM73.7073 12.0732V13.2439H72.5366V12.0732H73.7073ZM73.7073 10.9024V12.0732H72.5366V10.9024H73.7073ZM74.878 10.9024V12.0732H73.7073V10.9024H74.878ZM76.0488 10.9024V12.0732H74.878V10.9024H76.0488ZM73.7073 13.2439V14.4146H72.5366V13.2439H73.7073ZM74.878 13.2439V14.4146H73.7073V13.2439H74.878ZM77.2195 14.4146V15.5854H76.0488V14.4146H77.2195ZM78.3902 15.5854V16.7561H77.2195V15.5854H78.3902ZM78.3902 14.4146V15.5854H77.2195V14.4146H78.3902ZM78.3902 13.2439V14.4146H77.2195V13.2439H78.3902ZM78.3902 12.0732V13.2439H77.2195V12.0732H78.3902ZM78.3902 10.9024V12.0732H77.2195V10.9024H78.3902ZM78.3902 9.73171V10.9024H77.2195V9.73171H78.3902ZM78.3902 20.2683V21.439H77.2195V20.2683H78.3902ZM78.3902 21.439V22.6098H77.2195V21.439H78.3902ZM78.3902 22.6098V23.7805H77.2195V22.6098H78.3902ZM78.3902 23.7805V24.9512H77.2195V23.7805H78.3902ZM77.2195 23.7805V24.9512H76.0488V23.7805H77.2195ZM76.0488 23.7805V24.9512H74.878V23.7805H76.0488ZM74.878 23.7805V24.9512H73.7073V23.7805H74.878ZM73.7073 23.7805V24.9512H72.5366V23.7805H73.7073ZM73.7073 22.6098V23.7805H72.5366V22.6098H73.7073ZM74.878 22.6098V23.7805H73.7073V22.6098H74.878ZM76.0488 22.6098V23.7805H74.878V22.6098H76.0488ZM77.2195 22.6098V23.7805H76.0488V22.6098H77.2195ZM77.2195 21.439V22.6098H76.0488V21.439H77.2195ZM73.7073 24.9512V26.122H72.5366V24.9512H73.7073ZM74.878 24.9512V26.122H73.7073V24.9512H74.878ZM76.0488 24.9512V26.122H74.878V24.9512H76.0488ZM77.2195 24.9512V26.122H76.0488V24.9512H77.2195ZM78.3902 24.9512V26.122H77.2195V24.9512H78.3902ZM78.3902 26.122V27.2927H77.2195V26.122H78.3902ZM77.2195 26.122V27.2927H76.0488V26.122H77.2195ZM76.0488 26.122V27.2927H74.878V26.122H76.0488ZM74.878 26.122V27.2927H73.7073V26.122H74.878ZM73.7073 26.122V27.2927H72.5366V26.122H73.7073ZM77.2195 27.2927V28.4634H76.0488V27.2927H77.2195ZM78.3902 28.4634V29.6341H77.2195V28.4634H78.3902ZM78.3902 27.2927V28.4634H77.2195V27.2927H78.3902ZM78.3902 29.6341V30.8049H77.2195V29.6341H78.3902ZM78.3902 30.8049V31.9756H77.2195V30.8049H78.3902ZM73.7073 33.1463V34.3171H72.5366V33.1463H73.7073ZM74.878 33.1463V34.3171H73.7073V33.1463H74.878ZM76.0488 33.1463V34.3171H74.878V33.1463H76.0488ZM77.2195 31.9756V33.1463H76.0488V31.9756H77.2195ZM78.3902 31.9756V33.1463H77.2195V31.9756H78.3902ZM78.3902 33.1463V34.3171H77.2195V33.1463H78.3902ZM77.2195 33.1463V34.3171H76.0488V33.1463H77.2195ZM78.3902 34.3171V35.4878H77.2195V34.3171H78.3902ZM78.3902 35.4878V36.6585H77.2195V35.4878H78.3902ZM78.3902 36.6585V37.8293H77.2195V36.6585H78.3902ZM78.3902 37.8293V39H77.2195V37.8293H78.3902ZM77.2195 37.8293V39H76.0488V37.8293H77.2195ZM77.2195 36.6585V37.8293H76.0488V36.6585H77.2195ZM76.0488 36.6585V37.8293H74.878V36.6585H76.0488ZM74.878 37.8293V39H73.7073V37.8293H74.878ZM73.7073 37.8293V39H72.5366V37.8293H73.7073ZM76.0488 37.8293V39H74.878V37.8293H76.0488ZM74.878 36.6585V37.8293H73.7073V36.6585H74.878ZM73.7073 36.6585V37.8293H72.5366V36.6585H73.7073ZM73.7073 35.4878V36.6585H72.5366V35.4878H73.7073ZM74.878 35.4878V36.6585H73.7073V35.4878H74.878ZM76.0488 35.4878V36.6585H74.878V35.4878H76.0488ZM77.2195 35.4878V36.6585H76.0488V35.4878H77.2195ZM77.2195 34.3171V35.4878H76.0488V34.3171H77.2195ZM76.0488 34.3171V35.4878H74.878V34.3171H76.0488ZM74.878 34.3171V35.4878H73.7073V34.3171H74.878ZM73.7073 34.3171V35.4878H72.5366V34.3171H73.7073ZM79.561 10.9024V12.0732H78.3902V10.9024H79.561ZM80.7317 10.9024V12.0732H79.561V10.9024H80.7317ZM80.7317 12.0732V13.2439H79.561V12.0732H80.7317ZM81.9024 12.0732V13.2439H80.7317V12.0732H81.9024ZM81.9024 13.2439V14.4146H80.7317V13.2439H81.9024ZM81.9024 14.4146V15.5854H80.7317V14.4146H81.9024ZM83.0732 14.4146V15.5854H81.9024V14.4146H83.0732ZM83.0732 15.5854V16.7561H81.9024V15.5854H83.0732ZM83.0732 16.7561V17.9268H81.9024V16.7561H83.0732ZM83.0732 17.9268V19.0976H81.9024V17.9268H83.0732ZM83.0732 19.0976V20.2683H81.9024V19.0976H83.0732ZM83.0732 20.2683V21.439H81.9024V20.2683H83.0732ZM83.0732 21.439V22.6098H81.9024V21.439H83.0732ZM81.9024 22.6098V23.7805H80.7317V22.6098H81.9024ZM80.7317 23.7805V24.9512H79.561V23.7805H80.7317ZM81.9024 24.9512V26.122H80.7317V24.9512H81.9024ZM83.0732 26.122V27.2927H81.9024V26.122H83.0732ZM79.561 36.6585V37.8293H78.3902V36.6585H79.561ZM80.7317 36.6585V37.8293H79.561V36.6585H80.7317ZM81.9024 35.4878V36.6585H80.7317V35.4878H81.9024ZM83.0732 33.1463V34.3171H81.9024V33.1463H83.0732ZM80.7317 35.4878V36.6585H79.561V35.4878H80.7317ZM80.7317 34.3171V35.4878H79.561V34.3171H80.7317ZM81.9024 34.3171V35.4878H80.7317V34.3171H81.9024ZM83.0732 31.9756V33.1463H81.9024V31.9756H83.0732ZM83.0732 30.8049V31.9756H81.9024V30.8049H83.0732ZM83.0732 29.6341V30.8049H81.9024V29.6341H83.0732ZM83.0732 28.4634V29.6341H81.9024V28.4634H83.0732ZM83.0732 27.2927V28.4634H81.9024V27.2927H83.0732ZM79.561 24.9512V26.122H78.3902V24.9512H79.561ZM80.7317 24.9512V26.122H79.561V24.9512H80.7317ZM80.7317 26.122V27.2927H79.561V26.122H80.7317ZM79.561 26.122V27.2927H78.3902V26.122H79.561ZM81.9024 26.122V27.2927H80.7317V26.122H81.9024ZM81.9024 27.2927V28.4634H80.7317V27.2927H81.9024ZM81.9024 28.4634V29.6341H80.7317V28.4634H81.9024ZM81.9024 29.6341V30.8049H80.7317V29.6341H81.9024ZM81.9024 30.8049V31.9756H80.7317V30.8049H81.9024ZM81.9024 31.9756V33.1463H80.7317V31.9756H81.9024ZM81.9024 33.1463V34.3171H80.7317V33.1463H81.9024ZM80.7317 33.1463V34.3171H79.561V33.1463H80.7317ZM80.7317 31.9756V33.1463H79.561V31.9756H80.7317ZM80.7317 30.8049V31.9756H79.561V30.8049H80.7317ZM80.7317 29.6341V30.8049H79.561V29.6341H80.7317ZM80.7317 28.4634V29.6341H79.561V28.4634H80.7317ZM80.7317 27.2927V28.4634H79.561V27.2927H80.7317ZM79.561 27.2927V28.4634H78.3902V27.2927H79.561ZM79.561 28.4634V29.6341H78.3902V28.4634H79.561ZM79.561 29.6341V30.8049H78.3902V29.6341H79.561ZM79.561 30.8049V31.9756H78.3902V30.8049H79.561ZM79.561 31.9756V33.1463H78.3902V31.9756H79.561ZM79.561 33.1463V34.3171H78.3902V33.1463H79.561ZM79.561 34.3171V35.4878H78.3902V34.3171H79.561ZM79.561 35.4878V36.6585H78.3902V35.4878H79.561ZM79.561 12.0732V13.2439H78.3902V12.0732H79.561ZM79.561 13.2439V14.4146H78.3902V13.2439H79.561ZM79.561 14.4146V15.5854H78.3902V14.4146H79.561ZM79.561 15.5854V16.7561H78.3902V15.5854H79.561ZM79.561 16.7561V17.9268H78.3902V16.7561H79.561ZM79.561 17.9268V19.0976H78.3902V17.9268H79.561ZM79.561 19.0976V20.2683H78.3902V19.0976H79.561ZM79.561 20.2683V21.439H78.3902V20.2683H79.561ZM79.561 21.439V22.6098H78.3902V21.439H79.561ZM79.561 22.6098V23.7805H78.3902V22.6098H79.561ZM79.561 23.7805V24.9512H78.3902V23.7805H79.561ZM80.7317 22.6098V23.7805H79.561V22.6098H80.7317ZM80.7317 21.439V22.6098H79.561V21.439H80.7317ZM80.7317 20.2683V21.439H79.561V20.2683H80.7317ZM80.7317 19.0976V20.2683H79.561V19.0976H80.7317ZM80.7317 17.9268V19.0976H79.561V17.9268H80.7317ZM80.7317 16.7561V17.9268H79.561V16.7561H80.7317ZM80.7317 15.5854V16.7561H79.561V15.5854H80.7317ZM80.7317 14.4146V15.5854H79.561V14.4146H80.7317ZM80.7317 13.2439V14.4146H79.561V13.2439H80.7317ZM81.9024 15.5854V16.7561H80.7317V15.5854H81.9024ZM81.9024 16.7561V17.9268H80.7317V16.7561H81.9024ZM81.9024 17.9268V19.0976H80.7317V17.9268H81.9024ZM81.9024 19.0976V20.2683H80.7317V19.0976H81.9024ZM81.9024 20.2683V21.439H80.7317V20.2683H81.9024ZM81.9024 21.439V22.6098H80.7317V21.439H81.9024ZM88.9497 37.8293V39H87.779V37.8293H88.9497ZM88.9497 36.6585V37.8293H87.779V36.6585H88.9497ZM88.9497 35.4878V36.6585H87.779V35.4878H88.9497ZM88.9497 34.3171V35.4878H87.779V34.3171H88.9497ZM88.9497 33.1463V34.3171H87.779V33.1463H88.9497ZM88.9497 31.9756V33.1463H87.779V31.9756H88.9497ZM88.9497 30.8049V31.9756H87.779V30.8049H88.9497ZM88.9497 29.6341V30.8049H87.779V29.6341H88.9497ZM88.9497 28.4634V29.6341H87.779V28.4634H88.9497ZM88.9497 27.2927V28.4634H87.779V27.2927H88.9497ZM88.9497 26.122V27.2927H87.779V26.122H88.9497ZM88.9497 24.9512V26.122H87.779V24.9512H88.9497ZM88.9497 23.7805V24.9512H87.779V23.7805H88.9497ZM88.9497 22.6098V23.7805H87.779V22.6098H88.9497ZM88.9497 21.439V22.6098H87.779V21.439H88.9497ZM90.1204 21.439V22.6098H88.9497V21.439H90.1204ZM90.1204 22.6098V23.7805H88.9497V22.6098H90.1204ZM90.1204 23.7805V24.9512H88.9497V23.7805H90.1204ZM90.1204 24.9512V26.122H88.9497V24.9512H90.1204ZM90.1204 26.122V27.2927H88.9497V26.122H90.1204ZM90.1204 27.2927V28.4634H88.9497V27.2927H90.1204ZM90.1204 28.4634V29.6341H88.9497V28.4634H90.1204ZM91.2912 29.6341V30.8049H90.1204V29.6341H91.2912ZM91.2912 30.8049V31.9756H90.1204V30.8049H91.2912ZM91.2912 31.9756V33.1463H90.1204V31.9756H91.2912ZM91.2912 33.1463V34.3171H90.1204V33.1463H91.2912ZM91.2912 34.3171V35.4878H90.1204V34.3171H91.2912ZM91.2912 35.4878V36.6585H90.1204V35.4878H91.2912ZM91.2912 36.6585V37.8293H90.1204V36.6585H91.2912ZM91.2912 37.8293V39H90.1204V37.8293H91.2912ZM92.4619 37.8293V39H91.2912V37.8293H92.4619ZM93.6326 37.8293V39H92.4619V37.8293H93.6326ZM93.6326 36.6585V37.8293H92.4619V36.6585H93.6326ZM93.6326 35.4878V36.6585H92.4619V35.4878H93.6326ZM93.6326 34.3171V35.4878H92.4619V34.3171H93.6326ZM93.6326 33.1463V34.3171H92.4619V33.1463H93.6326ZM93.6326 31.9756V33.1463H92.4619V31.9756H93.6326ZM93.6326 30.8049V31.9756H92.4619V30.8049H93.6326ZM93.6326 29.6341V30.8049H92.4619V29.6341H93.6326ZM92.4619 29.6341V30.8049H91.2912V29.6341H92.4619ZM92.4619 28.4634V29.6341H91.2912V28.4634H92.4619ZM92.4619 30.8049V31.9756H91.2912V30.8049H92.4619ZM92.4619 31.9756V33.1463H91.2912V31.9756H92.4619ZM92.4619 33.1463V34.3171H91.2912V33.1463H92.4619ZM92.4619 34.3171V35.4878H91.2912V34.3171H92.4619ZM92.4619 35.4878V36.6585H91.2912V35.4878H92.4619ZM92.4619 36.6585V37.8293H91.2912V36.6585H92.4619ZM90.1204 37.8293V39H88.9497V37.8293H90.1204ZM90.1204 36.6585V37.8293H88.9497V36.6585H90.1204ZM90.1204 35.4878V36.6585H88.9497V35.4878H90.1204ZM90.1204 34.3171V35.4878H88.9497V34.3171H90.1204ZM90.1204 33.1463V34.3171H88.9497V33.1463H90.1204ZM90.1204 31.9756V33.1463H88.9497V31.9756H90.1204ZM90.1204 30.8049V31.9756H88.9497V30.8049H90.1204ZM90.1204 29.6341V30.8049H88.9497V29.6341H90.1204ZM88.9497 16.7561V17.9268H87.779V16.7561H88.9497ZM88.9497 17.9268V19.0976H87.779V17.9268H88.9497ZM88.9497 19.0976V20.2683H87.779V19.0976H88.9497ZM88.9497 20.2683V21.439H87.779V20.2683H88.9497ZM92.4619 17.9268V19.0976H91.2912V17.9268H92.4619ZM92.4619 19.0976V20.2683H91.2912V19.0976H92.4619ZM92.4619 20.2683V21.439H91.2912V20.2683H92.4619ZM92.4619 21.439V22.6098H91.2912V21.439H92.4619ZM92.4619 22.6098V23.7805H91.2912V22.6098H92.4619ZM92.4619 23.7805V24.9512H91.2912V23.7805H92.4619ZM92.4619 24.9512V26.122H91.2912V24.9512H92.4619ZM93.6326 26.122V27.2927H92.4619V26.122H93.6326ZM93.6326 27.2927V28.4634H92.4619V27.2927H93.6326ZM93.6326 28.4634V29.6341H92.4619V28.4634H93.6326ZM93.6326 24.9512V26.122H92.4619V24.9512H93.6326ZM93.6326 23.7805V24.9512H92.4619V23.7805H93.6326ZM93.6326 22.6098V23.7805H92.4619V22.6098H93.6326ZM93.6326 21.439V22.6098H92.4619V21.439H93.6326ZM93.6326 20.2683V21.439H92.4619V20.2683H93.6326ZM93.6326 19.0976V20.2683H92.4619V19.0976H93.6326ZM93.6326 17.9268V19.0976H92.4619V17.9268H93.6326ZM93.6326 16.7561V17.9268H92.4619V16.7561H93.6326ZM92.4619 16.7561V17.9268H91.2912V16.7561H92.4619ZM91.2912 16.7561V17.9268H90.1204V16.7561H91.2912ZM91.2912 17.9268V19.0976H90.1204V17.9268H91.2912ZM90.1204 19.0976V20.2683H88.9497V19.0976H90.1204ZM90.1204 20.2683V21.439H88.9497V20.2683H90.1204ZM90.1204 17.9268V19.0976H88.9497V17.9268H90.1204ZM90.1204 16.7561V17.9268H88.9497V16.7561H90.1204ZM91.2912 19.0976V20.2683H90.1204V19.0976H91.2912ZM91.2912 20.2683V21.439H90.1204V20.2683H91.2912ZM91.2912 21.439V22.6098H90.1204V21.439H91.2912ZM91.2912 22.6098V23.7805H90.1204V22.6098H91.2912ZM91.2912 23.7805V24.9512H90.1204V23.7805H91.2912ZM91.2912 24.9512V26.122H90.1204V24.9512H91.2912ZM91.2912 26.122V27.2927H90.1204V26.122H91.2912ZM91.2912 27.2927V28.4634H90.1204V27.2927H91.2912ZM91.2912 28.4634V29.6341H90.1204V28.4634H91.2912ZM92.4619 27.2927V28.4634H91.2912V27.2927H92.4619ZM92.4619 26.122V27.2927H91.2912V26.122H92.4619ZM101.828 21.439V22.6098H100.657V21.439H101.828ZM101.828 16.7561V17.9268H100.657V16.7561H101.828ZM101.828 17.9268V19.0976H100.657V17.9268H101.828ZM102.998 17.9268V19.0976H101.828V17.9268H102.998ZM104.169 19.0976V20.2683H102.998V19.0976H104.169ZM102.998 20.2683V21.439H101.828V20.2683H102.998ZM102.998 19.0976V20.2683H101.828V19.0976H102.998ZM101.828 19.0976V20.2683H100.657V19.0976H101.828ZM100.657 19.0976V20.2683H99.4863V19.0976H100.657ZM100.657 20.2683V21.439H99.4863V20.2683H100.657ZM101.828 20.2683V21.439H100.657V20.2683H101.828ZM100.657 21.439V22.6098H99.4863V21.439H100.657ZM99.4863 20.2683V21.439H98.3155V20.2683H99.4863ZM99.4863 19.0976V20.2683H98.3155V19.0976H99.4863ZM99.4863 17.9268V19.0976H98.3155V17.9268H99.4863ZM99.4863 16.7561V17.9268H98.3155V16.7561H99.4863ZM100.657 16.7561V17.9268H99.4863V16.7561H100.657ZM100.657 17.9268V19.0976H99.4863V17.9268H100.657ZM98.3155 16.7561V17.9268H97.1448V16.7561H98.3155ZM98.3155 17.9268V19.0976H97.1448V17.9268H98.3155ZM98.3155 19.0976V20.2683H97.1448V19.0976H98.3155ZM98.3155 20.2683V21.439H97.1448V20.2683H98.3155ZM97.1448 16.7561V17.9268H95.9741V16.7561H97.1448ZM97.1448 17.9268V19.0976H95.9741V17.9268H97.1448ZM95.9741 17.9268V19.0976H94.8034V17.9268H95.9741ZM95.9741 19.0976V20.2683H94.8034V19.0976H95.9741ZM94.8034 19.0976V20.2683H93.6326V19.0976H94.8034ZM94.8034 20.2683V21.439H93.6326V20.2683H94.8034ZM95.9741 20.2683V21.439H94.8034V20.2683H95.9741ZM97.1448 20.2683V21.439H95.9741V20.2683H97.1448ZM97.1448 19.0976V20.2683H95.9741V19.0976H97.1448ZM94.8034 21.439V22.6098H93.6326V21.439H94.8034ZM95.9741 16.7561V17.9268H94.8034V16.7561H95.9741ZM94.8034 17.9268V19.0976H93.6326V17.9268H94.8034ZM99.4863 21.439V22.6098H98.3155V21.439H99.4863ZM100.657 22.6098V23.7805H99.4863V22.6098H100.657ZM107.7 9.73171V10.9024H106.529V9.73171H107.7ZM107.7 10.9024V12.0732H106.529V10.9024H107.7ZM107.7 12.0732V13.2439H106.529V12.0732H107.7ZM111.212 9.73171V10.9024H110.041V9.73171H111.212ZM111.212 10.9024V12.0732H110.041V10.9024H111.212ZM111.212 12.0732V13.2439H110.041V12.0732H111.212ZM112.383 12.0732V13.2439H111.212V12.0732H112.383ZM112.383 10.9024V12.0732H111.212V10.9024H112.383ZM112.383 9.73171V10.9024H111.212V9.73171H112.383ZM110.041 9.73171V10.9024H108.87V9.73171H110.041ZM108.87 9.73171V10.9024H107.7V9.73171H108.87ZM108.87 10.9024V12.0732H107.7V10.9024H108.87ZM110.041 10.9024V12.0732H108.87V10.9024H110.041ZM110.041 12.0732V13.2439H108.87V12.0732H110.041ZM108.87 12.0732V13.2439H107.7V12.0732H108.87ZM107.7 13.2439V14.4146H106.529V13.2439H107.7ZM108.87 13.2439V14.4146H107.7V13.2439H108.87ZM110.041 13.2439V14.4146H108.87V13.2439H110.041ZM111.212 13.2439V14.4146H110.041V13.2439H111.212ZM112.383 13.2439V14.4146H111.212V13.2439H112.383ZM107.7 37.8293V39H106.529V37.8293H107.7ZM107.7 36.6585V37.8293H106.529V36.6585H107.7ZM107.7 35.4878V36.6585H106.529V35.4878H107.7ZM107.7 34.3171V35.4878H106.529V34.3171H107.7ZM107.7 33.1463V34.3171H106.529V33.1463H107.7ZM107.7 31.9756V33.1463H106.529V31.9756H107.7ZM107.7 30.8049V31.9756H106.529V30.8049H107.7ZM107.7 29.6341V30.8049H106.529V29.6341H107.7ZM107.7 28.4634V29.6341H106.529V28.4634H107.7ZM107.7 27.2927V28.4634H106.529V27.2927H107.7ZM107.7 26.122V27.2927H106.529V26.122H107.7ZM107.7 24.9512V26.122H106.529V24.9512H107.7ZM107.7 23.7805V24.9512H106.529V23.7805H107.7ZM107.7 22.6098V23.7805H106.529V22.6098H107.7ZM107.7 21.439V22.6098H106.529V21.439H107.7ZM108.87 21.439V22.6098H107.7V21.439H108.87ZM108.87 22.6098V23.7805H107.7V22.6098H108.87ZM108.87 23.7805V24.9512H107.7V23.7805H108.87ZM108.87 24.9512V26.122H107.7V24.9512H108.87ZM108.87 26.122V27.2927H107.7V26.122H108.87ZM108.87 27.2927V28.4634H107.7V27.2927H108.87ZM108.87 28.4634V29.6341H107.7V28.4634H108.87ZM110.041 29.6341V30.8049H108.87V29.6341H110.041ZM110.041 30.8049V31.9756H108.87V30.8049H110.041ZM110.041 31.9756V33.1463H108.87V31.9756H110.041ZM110.041 33.1463V34.3171H108.87V33.1463H110.041ZM110.041 34.3171V35.4878H108.87V34.3171H110.041ZM110.041 35.4878V36.6585H108.87V35.4878H110.041ZM110.041 36.6585V37.8293H108.87V36.6585H110.041ZM110.041 37.8293V39H108.87V37.8293H110.041ZM111.212 37.8293V39H110.041V37.8293H111.212ZM112.383 37.8293V39H111.212V37.8293H112.383ZM112.383 36.6585V37.8293H111.212V36.6585H112.383ZM112.383 35.4878V36.6585H111.212V35.4878H112.383ZM112.383 34.3171V35.4878H111.212V34.3171H112.383ZM112.383 33.1463V34.3171H111.212V33.1463H112.383ZM112.383 31.9756V33.1463H111.212V31.9756H112.383ZM112.383 30.8049V31.9756H111.212V30.8049H112.383ZM112.383 29.6341V30.8049H111.212V29.6341H112.383ZM111.212 29.6341V30.8049H110.041V29.6341H111.212ZM111.212 28.4634V29.6341H110.041V28.4634H111.212ZM111.212 30.8049V31.9756H110.041V30.8049H111.212ZM111.212 31.9756V33.1463H110.041V31.9756H111.212ZM111.212 33.1463V34.3171H110.041V33.1463H111.212ZM111.212 34.3171V35.4878H110.041V34.3171H111.212ZM111.212 35.4878V36.6585H110.041V35.4878H111.212ZM111.212 36.6585V37.8293H110.041V36.6585H111.212ZM108.87 37.8293V39H107.7V37.8293H108.87ZM108.87 36.6585V37.8293H107.7V36.6585H108.87ZM108.87 35.4878V36.6585H107.7V35.4878H108.87ZM108.87 34.3171V35.4878H107.7V34.3171H108.87ZM108.87 33.1463V34.3171H107.7V33.1463H108.87ZM108.87 31.9756V33.1463H107.7V31.9756H108.87ZM108.87 30.8049V31.9756H107.7V30.8049H108.87ZM108.87 29.6341V30.8049H107.7V29.6341H108.87ZM107.7 19.0976V20.2683H106.529V19.0976H107.7ZM107.7 20.2683V21.439H106.529V20.2683H107.7ZM111.212 19.0976V20.2683H110.041V19.0976H111.212ZM111.212 20.2683V21.439H110.041V20.2683H111.212ZM111.212 21.439V22.6098H110.041V21.439H111.212ZM111.212 22.6098V23.7805H110.041V22.6098H111.212ZM111.212 23.7805V24.9512H110.041V23.7805H111.212ZM111.212 24.9512V26.122H110.041V24.9512H111.212ZM112.383 26.122V27.2927H111.212V26.122H112.383ZM112.383 27.2927V28.4634H111.212V27.2927H112.383ZM112.383 28.4634V29.6341H111.212V28.4634H112.383ZM112.383 24.9512V26.122H111.212V24.9512H112.383ZM112.383 23.7805V24.9512H111.212V23.7805H112.383ZM112.383 22.6098V23.7805H111.212V22.6098H112.383ZM112.383 21.439V22.6098H111.212V21.439H112.383ZM112.383 20.2683V21.439H111.212V20.2683H112.383ZM112.383 19.0976V20.2683H111.212V19.0976H112.383ZM108.87 19.0976V20.2683H107.7V19.0976H108.87ZM108.87 20.2683V21.439H107.7V20.2683H108.87ZM110.041 19.0976V20.2683H108.87V19.0976H110.041ZM110.041 20.2683V21.439H108.87V20.2683H110.041ZM110.041 21.439V22.6098H108.87V21.439H110.041ZM110.041 22.6098V23.7805H108.87V22.6098H110.041ZM110.041 23.7805V24.9512H108.87V23.7805H110.041ZM110.041 24.9512V26.122H108.87V24.9512H110.041ZM110.041 26.122V27.2927H108.87V26.122H110.041ZM110.041 27.2927V28.4634H108.87V27.2927H110.041ZM110.041 28.4634V29.6341H108.87V28.4634H110.041ZM111.212 27.2927V28.4634H110.041V27.2927H111.212ZM111.212 26.122V27.2927H110.041V26.122H111.212ZM111.212 17.9268V19.0976H110.041V17.9268H111.212ZM112.383 17.9268V19.0976H111.212V17.9268H112.383ZM110.041 17.9268V19.0976H108.87V17.9268H110.041ZM108.87 17.9268V19.0976H107.7V17.9268H108.87ZM107.7 17.9268V19.0976H106.529V17.9268H107.7ZM128.783 20.2683V21.439H127.612V20.2683H128.783ZM128.783 19.0976V20.2683H127.612V19.0976H128.783ZM128.783 17.9268V19.0976H127.612V17.9268H128.783ZM127.612 17.9268V19.0976H126.442V17.9268H127.612ZM127.612 16.7561V17.9268H126.442V16.7561H127.612ZM127.612 19.0976V20.2683H126.442V19.0976H127.612ZM126.442 19.0976V20.2683H125.271V19.0976H126.442ZM126.442 20.2683V21.439H125.271V20.2683H126.442ZM127.612 20.2683V21.439H126.442V20.2683H127.612ZM125.271 20.2683V21.439H124.1V20.2683H125.271ZM125.271 19.0976V20.2683H124.1V19.0976H125.271ZM125.271 17.9268V19.0976H124.1V17.9268H125.271ZM125.271 16.7561V17.9268H124.1V16.7561H125.271ZM126.442 16.7561V17.9268H125.271V16.7561H126.442ZM126.442 17.9268V19.0976H125.271V17.9268H126.442ZM124.1 16.7561V17.9268H122.929V16.7561H124.1ZM122.929 16.7561V17.9268H121.759V16.7561H122.929ZM121.759 16.7561V17.9268H120.588V16.7561H121.759ZM121.759 17.9268V19.0976H120.588V17.9268H121.759ZM121.759 19.0976V20.2683H120.588V19.0976H121.759ZM121.759 20.2683V21.439H120.588V20.2683H121.759ZM122.929 20.2683V21.439H121.759V20.2683H122.929ZM124.1 20.2683V21.439H122.929V20.2683H124.1ZM124.1 19.0976V20.2683H122.929V19.0976H124.1ZM124.1 17.9268V19.0976H122.929V17.9268H124.1ZM122.929 17.9268V19.0976H121.759V17.9268H122.929ZM122.929 19.0976V20.2683H121.759V19.0976H122.929ZM120.588 19.0976V20.2683H119.417V19.0976H120.588ZM120.588 17.9268V19.0976H119.417V17.9268H120.588ZM119.417 17.9268V19.0976H118.247V17.9268H119.417ZM119.417 19.0976V20.2683H118.247V19.0976H119.417ZM118.247 19.0976V20.2683H117.076V19.0976H118.247ZM118.247 20.2683V21.439H117.076V20.2683H118.247ZM118.247 21.439V22.6098H117.076V21.439H118.247ZM119.417 21.439V22.6098H118.247V21.439H119.417ZM119.417 20.2683V21.439H118.247V20.2683H119.417ZM120.588 20.2683V21.439H119.417V20.2683H120.588ZM120.588 21.439V22.6098H119.417V21.439H120.588ZM121.759 21.439V22.6098H120.588V21.439H121.759ZM122.929 21.439V22.6098H121.759V21.439H122.929ZM117.076 21.439V22.6098H115.905V21.439H117.076ZM117.076 22.6098V23.7805H115.905V22.6098H117.076ZM117.076 23.7805V24.9512H115.905V23.7805H117.076ZM117.076 24.9512V26.122H115.905V24.9512H117.076ZM117.076 26.122V27.2927H115.905V26.122H117.076ZM117.076 27.2927V28.4634H115.905V27.2927H117.076ZM117.076 28.4634V29.6341H115.905V28.4634H117.076ZM117.076 29.6341V30.8049H115.905V29.6341H117.076ZM117.076 30.8049V31.9756H115.905V30.8049H117.076ZM117.076 31.9756V33.1463H115.905V31.9756H117.076ZM118.247 31.9756V33.1463H117.076V31.9756H118.247ZM118.247 33.1463V34.3171H117.076V33.1463H118.247ZM117.076 33.1463V34.3171H115.905V33.1463H117.076ZM119.417 33.1463V34.3171H118.247V33.1463H119.417ZM120.588 33.1463V34.3171H119.417V33.1463H120.588ZM121.759 33.1463V34.3171H120.588V33.1463H121.759ZM122.929 33.1463V34.3171H121.759V33.1463H122.929ZM121.759 31.9756V33.1463H120.588V31.9756H121.759ZM121.759 30.8049V31.9756H120.588V30.8049H121.759ZM121.759 29.6341V30.8049H120.588V29.6341H121.759ZM121.759 28.4634V29.6341H120.588V28.4634H121.759ZM121.759 27.2927V28.4634H120.588V27.2927H121.759ZM121.759 26.122V27.2927H120.588V26.122H121.759ZM121.759 24.9512V26.122H120.588V24.9512H121.759ZM121.759 23.7805V24.9512H120.588V23.7805H121.759ZM121.759 22.6098V23.7805H120.588V22.6098H121.759ZM120.588 22.6098V23.7805H119.417V22.6098H120.588ZM119.417 22.6098V23.7805H118.247V22.6098H119.417ZM118.247 22.6098V23.7805H117.076V22.6098H118.247ZM118.247 23.7805V24.9512H117.076V23.7805H118.247ZM118.247 24.9512V26.122H117.076V24.9512H118.247ZM118.247 26.122V27.2927H117.076V26.122H118.247ZM118.247 27.2927V28.4634H117.076V27.2927H118.247ZM118.247 28.4634V29.6341H117.076V28.4634H118.247ZM118.247 29.6341V30.8049H117.076V29.6341H118.247ZM118.247 30.8049V31.9756H117.076V30.8049H118.247ZM119.417 31.9756V33.1463H118.247V31.9756H119.417ZM120.588 31.9756V33.1463H119.417V31.9756H120.588ZM120.588 30.8049V31.9756H119.417V30.8049H120.588ZM120.588 29.6341V30.8049H119.417V29.6341H120.588ZM120.588 28.4634V29.6341H119.417V28.4634H120.588ZM120.588 27.2927V28.4634H119.417V27.2927H120.588ZM119.417 27.2927V28.4634H118.247V27.2927H119.417ZM119.417 26.122V27.2927H118.247V26.122H119.417ZM119.417 24.9512V26.122H118.247V24.9512H119.417ZM119.417 23.7805V24.9512H118.247V23.7805H119.417ZM120.588 23.7805V24.9512H119.417V23.7805H120.588ZM120.588 24.9512V26.122H119.417V24.9512H120.588ZM120.588 26.122V27.2927H119.417V26.122H120.588ZM119.417 29.6341V30.8049H118.247V29.6341H119.417ZM119.417 30.8049V31.9756H118.247V30.8049H119.417ZM119.417 28.4634V29.6341H118.247V28.4634H119.417ZM128.783 34.3171V35.4878H127.612V34.3171H128.783ZM127.612 37.8293V39H126.442V37.8293H127.612ZM126.442 37.8293V39H125.271V37.8293H126.442ZM125.271 37.8293V39H124.1V37.8293H125.271ZM124.1 37.8293V39H122.929V37.8293H124.1ZM122.929 37.8293V39H121.759V37.8293H122.929ZM121.759 37.8293V39H120.588V37.8293H121.759ZM122.929 36.6585V37.8293H121.759V36.6585H122.929ZM124.1 36.6585V37.8293H122.929V36.6585H124.1ZM125.271 36.6585V37.8293H124.1V36.6585H125.271ZM126.442 36.6585V37.8293H125.271V36.6585H126.442ZM127.612 36.6585V37.8293H126.442V36.6585H127.612ZM128.783 36.6585V37.8293H127.612V36.6585H128.783ZM128.783 35.4878V36.6585H127.612V35.4878H128.783ZM127.612 35.4878V36.6585H126.442V35.4878H127.612ZM126.442 35.4878V36.6585H125.271V35.4878H126.442ZM125.271 35.4878V36.6585H124.1V35.4878H125.271ZM124.1 35.4878V36.6585H122.929V35.4878H124.1ZM122.929 35.4878V36.6585H121.759V35.4878H122.929ZM121.759 36.6585V37.8293H120.588V36.6585H121.759ZM120.588 36.6585V37.8293H119.417V36.6585H120.588ZM119.417 36.6585V37.8293H118.247V36.6585H119.417ZM119.417 35.4878V36.6585H118.247V35.4878H119.417ZM118.247 35.4878V36.6585H117.076V35.4878H118.247ZM118.247 34.3171V35.4878H117.076V34.3171H118.247ZM119.417 34.3171V35.4878H118.247V34.3171H119.417ZM120.588 34.3171V35.4878H119.417V34.3171H120.588ZM121.759 34.3171V35.4878H120.588V34.3171H121.759ZM122.929 34.3171V35.4878H121.759V34.3171H122.929ZM124.1 34.3171V35.4878H122.929V34.3171H124.1ZM125.271 34.3171V35.4878H124.1V34.3171H125.271ZM126.442 34.3171V35.4878H125.271V34.3171H126.442ZM127.612 34.3171V35.4878H126.442V34.3171H127.612ZM121.759 35.4878V36.6585H120.588V35.4878H121.759ZM120.588 35.4878V36.6585H119.417V35.4878H120.588ZM129.954 35.4878V36.6585H128.783V35.4878H129.954ZM129.954 34.3171V35.4878H128.783V34.3171H129.954ZM129.954 33.1463V34.3171H128.783V33.1463H129.954ZM129.954 31.9756V33.1463H128.783V31.9756H129.954ZM129.954 30.8049V31.9756H128.783V30.8049H129.954ZM129.954 29.6341V30.8049H128.783V29.6341H129.954ZM129.954 28.4634V29.6341H128.783V28.4634H129.954ZM129.954 27.2927V28.4634H128.783V27.2927H129.954ZM129.954 26.122V27.2927H128.783V26.122H129.954ZM129.954 24.9512V26.122H128.783V24.9512H129.954ZM129.954 23.7805V24.9512H128.783V23.7805H129.954ZM129.954 22.6098V23.7805H128.783V22.6098H129.954ZM129.954 21.439V22.6098H128.783V21.439H129.954ZM131.125 21.439V22.6098H129.954V21.439H131.125ZM131.125 22.6098V23.7805H129.954V22.6098H131.125ZM131.125 23.7805V24.9512H129.954V23.7805H131.125ZM131.125 24.9512V26.122H129.954V24.9512H131.125ZM131.125 26.122V27.2927H129.954V26.122H131.125ZM131.125 27.2927V28.4634H129.954V27.2927H131.125ZM131.125 28.4634V29.6341H129.954V28.4634H131.125ZM132.295 29.6341V30.8049H131.125V29.6341H132.295ZM132.295 30.8049V31.9756H131.125V30.8049H132.295ZM132.295 31.9756V33.1463H131.125V31.9756H132.295ZM132.295 33.1463V34.3171H131.125V33.1463H132.295ZM132.295 34.3171V35.4878H131.125V34.3171H132.295ZM132.295 35.4878V36.6585H131.125V35.4878H132.295ZM132.295 36.6585V37.8293H131.125V36.6585H132.295ZM132.295 37.8293V39H131.125V37.8293H132.295ZM133.466 37.8293V39H132.295V37.8293H133.466ZM134.637 37.8293V39H133.466V37.8293H134.637ZM134.637 36.6585V37.8293H133.466V36.6585H134.637ZM134.637 35.4878V36.6585H133.466V35.4878H134.637ZM134.637 34.3171V35.4878H133.466V34.3171H134.637ZM134.637 33.1463V34.3171H133.466V33.1463H134.637ZM134.637 31.9756V33.1463H133.466V31.9756H134.637ZM134.637 30.8049V31.9756H133.466V30.8049H134.637ZM134.637 29.6341V30.8049H133.466V29.6341H134.637ZM133.466 29.6341V30.8049H132.295V29.6341H133.466ZM133.466 28.4634V29.6341H132.295V28.4634H133.466ZM133.466 30.8049V31.9756H132.295V30.8049H133.466ZM133.466 31.9756V33.1463H132.295V31.9756H133.466ZM133.466 33.1463V34.3171H132.295V33.1463H133.466ZM133.466 34.3171V35.4878H132.295V34.3171H133.466ZM133.466 35.4878V36.6585H132.295V35.4878H133.466ZM133.466 36.6585V37.8293H132.295V36.6585H133.466ZM131.125 35.4878V36.6585H129.954V35.4878H131.125ZM131.125 34.3171V35.4878H129.954V34.3171H131.125ZM131.125 33.1463V34.3171H129.954V33.1463H131.125ZM131.125 31.9756V33.1463H129.954V31.9756H131.125ZM131.125 30.8049V31.9756H129.954V30.8049H131.125ZM131.125 29.6341V30.8049H129.954V29.6341H131.125ZM129.954 9.73171V10.9024H128.783V9.73171H129.954ZM129.954 10.9024V12.0732H128.783V10.9024H129.954ZM129.954 12.0732V13.2439H128.783V12.0732H129.954ZM129.954 13.2439V14.4146H128.783V13.2439H129.954ZM129.954 14.4146V15.5854H128.783V14.4146H129.954ZM129.954 15.5854V16.7561H128.783V15.5854H129.954ZM129.954 17.9268V19.0976H128.783V17.9268H129.954ZM129.954 20.2683V21.439H128.783V20.2683H129.954ZM133.466 9.73171V10.9024H132.295V9.73171H133.466ZM133.466 10.9024V12.0732H132.295V10.9024H133.466ZM133.466 12.0732V13.2439H132.295V12.0732H133.466ZM133.466 13.2439V14.4146H132.295V13.2439H133.466ZM133.466 14.4146V15.5854H132.295V14.4146H133.466ZM133.466 15.5854V16.7561H132.295V15.5854H133.466ZM133.466 17.9268V19.0976H132.295V17.9268H133.466ZM133.466 19.0976V20.2683H132.295V19.0976H133.466ZM133.466 20.2683V21.439H132.295V20.2683H133.466ZM133.466 22.6098V23.7805H132.295V22.6098H133.466ZM133.466 23.7805V24.9512H132.295V23.7805H133.466ZM133.466 24.9512V26.122H132.295V24.9512H133.466ZM134.637 26.122V27.2927H133.466V26.122H134.637ZM134.637 27.2927V28.4634H133.466V27.2927H134.637ZM134.637 28.4634V29.6341H133.466V28.4634H134.637ZM134.637 24.9512V26.122H133.466V24.9512H134.637ZM134.637 23.7805V24.9512H133.466V23.7805H134.637ZM134.637 21.439V22.6098H133.466V21.439H134.637ZM134.637 20.2683V21.439H133.466V20.2683H134.637ZM134.637 19.0976V20.2683H133.466V19.0976H134.637ZM134.637 17.9268V19.0976H133.466V17.9268H134.637ZM134.637 16.7561V17.9268H133.466V16.7561H134.637ZM134.637 15.5854V16.7561H133.466V15.5854H134.637ZM134.637 14.4146V15.5854H133.466V14.4146H134.637ZM133.466 16.7561V17.9268H132.295V16.7561H133.466ZM134.637 13.2439V14.4146H133.466V13.2439H134.637ZM134.637 12.0732V13.2439H133.466V12.0732H134.637ZM134.637 10.9024V12.0732H133.466V10.9024H134.637ZM134.637 9.73171V10.9024H133.466V9.73171H134.637ZM132.295 9.73171V10.9024H131.125V9.73171H132.295ZM131.125 9.73171V10.9024H129.954V9.73171H131.125ZM131.125 10.9024V12.0732H129.954V10.9024H131.125ZM132.295 10.9024V12.0732H131.125V10.9024H132.295ZM132.295 12.0732V13.2439H131.125V12.0732H132.295ZM132.295 13.2439V14.4146H131.125V13.2439H132.295ZM132.295 14.4146V15.5854H131.125V14.4146H132.295ZM132.295 15.5854V16.7561H131.125V15.5854H132.295ZM132.295 16.7561V17.9268H131.125V16.7561H132.295ZM132.295 17.9268V19.0976H131.125V17.9268H132.295ZM131.125 19.0976V20.2683H129.954V19.0976H131.125ZM131.125 20.2683V21.439H129.954V20.2683H131.125ZM131.125 17.9268V19.0976H129.954V17.9268H131.125ZM131.125 16.7561V17.9268H129.954V16.7561H131.125ZM131.125 15.5854V16.7561H129.954V15.5854H131.125ZM131.125 14.4146V15.5854H129.954V14.4146H131.125ZM131.125 13.2439V14.4146H129.954V13.2439H131.125ZM131.125 12.0732V13.2439H129.954V12.0732H131.125ZM132.295 20.2683V21.439H131.125V20.2683H132.295ZM132.295 22.6098V23.7805H131.125V22.6098H132.295ZM132.295 23.7805V24.9512H131.125V23.7805H132.295ZM132.295 24.9512V26.122H131.125V24.9512H132.295ZM132.295 26.122V27.2927H131.125V26.122H132.295ZM132.295 27.2927V28.4634H131.125V27.2927H132.295ZM132.295 28.4634V29.6341H131.125V28.4634H132.295ZM133.466 27.2927V28.4634H132.295V27.2927H133.466ZM133.466 26.122V27.2927H132.295V26.122H133.466ZM129.954 16.7561V17.9268H128.783V16.7561H129.954ZM134.637 22.6098V23.7805H133.466V22.6098H134.637ZM129.954 19.0976V20.2683H128.783V19.0976H129.954ZM132.295 19.0976V20.2683H131.125V19.0976H132.295ZM132.295 21.439V22.6098H131.125V21.439H132.295ZM133.466 21.439V22.6098H132.295V21.439H133.466ZM129.954 36.6585V37.8293H128.783V36.6585H129.954ZM131.125 36.6585V37.8293H129.954V36.6585H131.125ZM131.125 37.8293V39H129.954V37.8293H131.125ZM128.783 16.7561V17.9268H127.612V16.7561H128.783ZM128.783 33.1463V34.3171H127.612V33.1463H128.783ZM129.954 37.8293V39H128.783V37.8293H129.954ZM156.902 16.7561V17.9268H155.732V16.7561H156.902ZM155.732 16.7561V17.9268H154.561V16.7561H155.732ZM154.561 16.7561V17.9268H153.39V16.7561H154.561ZM153.39 16.7561V17.9268H152.22V16.7561H153.39ZM152.22 16.7561V17.9268H151.049V16.7561H152.22ZM152.22 17.9268V19.0976H151.049V17.9268H152.22ZM152.22 19.0976V20.2683H151.049V19.0976H152.22ZM152.22 20.2683V21.439H151.049V20.2683H152.22ZM152.22 21.439V22.6098H151.049V21.439H152.22ZM152.22 22.6098V23.7805H151.049V22.6098H152.22ZM152.22 23.7805V24.9512H151.049V23.7805H152.22ZM152.22 24.9512V26.122H151.049V24.9512H152.22ZM152.22 26.122V27.2927H151.049V26.122H152.22ZM152.22 27.2927V28.4634H151.049V27.2927H152.22ZM152.22 28.4634V29.6341H151.049V28.4634H152.22ZM152.22 29.6341V30.8049H151.049V29.6341H152.22ZM152.22 30.8049V31.9756H151.049V30.8049H152.22ZM152.22 31.9756V33.1463H151.049V31.9756H152.22ZM152.22 33.1463V34.3171H151.049V33.1463H152.22ZM153.39 34.3171V35.4878H152.22V34.3171H153.39ZM154.561 34.3171V35.4878H153.39V34.3171H154.561ZM155.732 34.3171V35.4878H154.561V34.3171H155.732ZM156.902 34.3171V35.4878H155.732V34.3171H156.902ZM156.902 33.1463V34.3171H155.732V33.1463H156.902ZM156.902 31.9756V33.1463H155.732V31.9756H156.902ZM156.902 30.8049V31.9756H155.732V30.8049H156.902ZM156.902 29.6341V30.8049H155.732V29.6341H156.902ZM156.902 28.4634V29.6341H155.732V28.4634H156.902ZM156.902 27.2927V28.4634H155.732V27.2927H156.902ZM156.902 26.122V27.2927H155.732V26.122H156.902ZM156.902 24.9512V26.122H155.732V24.9512H156.902ZM156.902 23.7805V24.9512H155.732V23.7805H156.902ZM156.902 22.6098V23.7805H155.732V22.6098H156.902ZM156.902 21.439V22.6098H155.732V21.439H156.902ZM156.902 20.2683V21.439H155.732V20.2683H156.902ZM155.732 19.0976V20.2683H154.561V19.0976H155.732ZM155.732 17.9268V19.0976H154.561V17.9268H155.732ZM156.902 17.9268V19.0976H155.732V17.9268H156.902ZM156.902 19.0976V20.2683H155.732V19.0976H156.902ZM154.561 19.0976V20.2683H153.39V19.0976H154.561ZM153.39 19.0976V20.2683H152.22V19.0976H153.39ZM153.39 17.9268V19.0976H152.22V17.9268H153.39ZM154.561 17.9268V19.0976H153.39V17.9268H154.561ZM154.561 20.2683V21.439H153.39V20.2683H154.561ZM154.561 21.439V22.6098H153.39V21.439H154.561ZM154.561 22.6098V23.7805H153.39V22.6098H154.561ZM154.561 23.7805V24.9512H153.39V23.7805H154.561ZM154.561 24.9512V26.122H153.39V24.9512H154.561ZM154.561 26.122V27.2927H153.39V26.122H154.561ZM154.561 27.2927V28.4634H153.39V27.2927H154.561ZM154.561 28.4634V29.6341H153.39V28.4634H154.561ZM154.561 29.6341V30.8049H153.39V29.6341H154.561ZM153.39 30.8049V31.9756H152.22V30.8049H153.39ZM153.39 31.9756V33.1463H152.22V31.9756H153.39ZM153.39 33.1463V34.3171H152.22V33.1463H153.39ZM154.561 33.1463V34.3171H153.39V33.1463H154.561ZM154.561 31.9756V33.1463H153.39V31.9756H154.561ZM154.561 30.8049V31.9756H153.39V30.8049H154.561ZM153.39 21.439V22.6098H152.22V21.439H153.39ZM153.39 20.2683V21.439H152.22V20.2683H153.39ZM153.39 22.6098V23.7805H152.22V22.6098H153.39ZM153.39 23.7805V24.9512H152.22V23.7805H153.39ZM153.39 24.9512V26.122H152.22V24.9512H153.39ZM153.39 26.122V27.2927H152.22V26.122H153.39ZM153.39 27.2927V28.4634H152.22V27.2927H153.39ZM153.39 28.4634V29.6341H152.22V28.4634H153.39ZM153.39 29.6341V30.8049H152.22V29.6341H153.39ZM155.732 33.1463V34.3171H154.561V33.1463H155.732ZM155.732 31.9756V33.1463H154.561V31.9756H155.732ZM155.732 30.8049V31.9756H154.561V30.8049H155.732ZM155.732 29.6341V30.8049H154.561V29.6341H155.732ZM155.732 28.4634V29.6341H154.561V28.4634H155.732ZM155.732 27.2927V28.4634H154.561V27.2927H155.732ZM155.732 26.122V27.2927H154.561V26.122H155.732ZM155.732 24.9512V26.122H154.561V24.9512H155.732ZM155.732 23.7805V24.9512H154.561V23.7805H155.732ZM155.732 22.6098V23.7805H154.561V22.6098H155.732ZM155.732 21.439V22.6098H154.561V21.439H155.732ZM155.732 20.2683V21.439H154.561V20.2683H155.732ZM152.22 34.3171V35.4878H151.049V34.3171H152.22ZM152.22 35.4878V36.6585H151.049V35.4878H152.22ZM152.22 36.6585V37.8293H151.049V36.6585H152.22ZM152.22 37.8293V39H151.049V37.8293H152.22ZM152.22 39V40.1707H151.049V39H152.22ZM153.39 39V40.1707H152.22V39H153.39ZM154.561 39V40.1707H153.39V39H154.561ZM155.732 39V40.1707H154.561V39H155.732ZM156.902 39V40.1707H155.732V39H156.902ZM156.902 40.1707V41.3415H155.732V40.1707H156.902ZM155.732 40.1707V41.3415H154.561V40.1707H155.732ZM154.561 40.1707V41.3415H153.39V40.1707H154.561ZM153.39 40.1707V41.3415H152.22V40.1707H153.39ZM152.22 40.1707V41.3415H151.049V40.1707H152.22ZM151.049 40.1707V41.3415H149.878V40.1707H151.049ZM152.22 41.3415V42.5122H151.049V41.3415H152.22ZM153.39 41.3415V42.5122H152.22V41.3415H153.39ZM154.561 41.3415V42.5122H153.39V41.3415H154.561ZM155.732 41.3415V42.5122H154.561V41.3415H155.732ZM155.732 42.5122V43.6829H154.561V42.5122H155.732ZM154.561 42.5122V43.6829H153.39V42.5122H154.561ZM154.561 43.6829V44.8537H153.39V43.6829H154.561ZM153.39 43.6829V44.8537H152.22V43.6829H153.39ZM152.22 43.6829V44.8537H151.049V43.6829H152.22ZM152.22 44.8537V46.0244H151.049V44.8537H152.22ZM151.049 44.8537V46.0244H149.878V44.8537H151.049ZM149.878 44.8537V46.0244H148.707V44.8537H149.878ZM148.707 44.8537V46.0244H147.537V44.8537H148.707ZM147.537 44.8537V46.0244H146.366V44.8537H147.537ZM146.366 44.8537V46.0244H145.195V44.8537H146.366ZM145.195 44.8537V46.0244H144.024V44.8537H145.195ZM144.024 44.8537V46.0244H142.854V44.8537H144.024ZM144.024 43.6829V44.8537H142.854V43.6829H144.024ZM142.854 43.6829V44.8537H141.683V43.6829H142.854ZM141.683 43.6829V44.8537H140.512V43.6829H141.683ZM141.683 42.5122V43.6829H140.512V42.5122H141.683ZM140.512 42.5122V43.6829H139.341V42.5122H140.512ZM140.512 41.3415V42.5122H139.341V41.3415H140.512ZM140.512 40.1707V41.3415H139.341V40.1707H140.512ZM139.341 40.1707V41.3415H138.171V40.1707H139.341ZM139.341 39V40.1707H138.171V39H139.341ZM140.512 39V40.1707H139.341V39H140.512ZM141.683 39V40.1707H140.512V39H141.683ZM142.854 39V40.1707H141.683V39H142.854ZM144.024 39V40.1707H142.854V39H144.024ZM144.024 40.1707V41.3415H142.854V40.1707H144.024ZM145.195 40.1707V41.3415H144.024V40.1707H145.195ZM145.195 41.3415V42.5122H144.024V41.3415H145.195ZM146.366 41.3415V42.5122H145.195V41.3415H146.366ZM147.537 41.3415V42.5122H146.366V41.3415H147.537ZM148.707 41.3415V42.5122H147.537V41.3415H148.707ZM149.878 41.3415V42.5122H148.707V41.3415H149.878ZM151.049 41.3415V42.5122H149.878V41.3415H151.049ZM153.39 42.5122V43.6829H152.22V42.5122H153.39ZM152.22 42.5122V43.6829H151.049V42.5122H152.22ZM151.049 42.5122V43.6829H149.878V42.5122H151.049ZM149.878 42.5122V43.6829H148.707V42.5122H149.878ZM148.707 42.5122V43.6829H147.537V42.5122H148.707ZM147.537 42.5122V43.6829H146.366V42.5122H147.537ZM147.537 43.6829V44.8537H146.366V43.6829H147.537ZM146.366 43.6829V44.8537H145.195V43.6829H146.366ZM145.195 43.6829V44.8537H144.024V43.6829H145.195ZM144.024 42.5122V43.6829H142.854V42.5122H144.024ZM145.195 42.5122V43.6829H144.024V42.5122H145.195ZM146.366 42.5122V43.6829H145.195V42.5122H146.366ZM151.049 43.6829V44.8537H149.878V43.6829H151.049ZM149.878 43.6829V44.8537H148.707V43.6829H149.878ZM148.707 43.6829V44.8537H147.537V43.6829H148.707ZM142.854 42.5122V43.6829H141.683V42.5122H142.854ZM142.854 41.3415V42.5122H141.683V41.3415H142.854ZM144.024 41.3415V42.5122H142.854V41.3415H144.024ZM141.683 41.3415V42.5122H140.512V41.3415H141.683ZM141.683 40.1707V41.3415H140.512V40.1707H141.683ZM142.854 40.1707V41.3415H141.683V40.1707H142.854ZM153.39 35.4878V36.6585H152.22V35.4878H153.39ZM154.561 35.4878V36.6585H153.39V35.4878H154.561ZM155.732 35.4878V36.6585H154.561V35.4878H155.732ZM156.902 35.4878V36.6585H155.732V35.4878H156.902ZM156.902 36.6585V37.8293H155.732V36.6585H156.902ZM156.902 37.8293V39H155.732V37.8293H156.902ZM155.732 37.8293V39H154.561V37.8293H155.732ZM154.561 37.8293V39H153.39V37.8293H154.561ZM153.39 37.8293V39H152.22V37.8293H153.39ZM153.39 36.6585V37.8293H152.22V36.6585H153.39ZM154.561 36.6585V37.8293H153.39V36.6585H154.561ZM155.732 36.6585V37.8293H154.561V36.6585H155.732ZM146.366 31.9756V33.1463H145.195V31.9756H146.366ZM147.537 31.9756V33.1463H146.366V31.9756H147.537ZM148.707 31.9756V33.1463H147.537V31.9756H148.707ZM149.878 31.9756V33.1463H148.707V31.9756H149.878ZM151.049 31.9756V33.1463H149.878V31.9756H151.049ZM151.049 33.1463V34.3171H149.878V33.1463H151.049ZM149.878 35.4878V36.6585H148.707V35.4878H149.878ZM148.707 35.4878V36.6585H147.537V35.4878H148.707ZM147.537 35.4878V36.6585H146.366V35.4878H147.537ZM146.366 35.4878V36.6585H145.195V35.4878H146.366ZM145.195 35.4878V36.6585H144.024V35.4878H145.195ZM145.195 34.3171V35.4878H144.024V34.3171H145.195ZM145.195 33.1463V34.3171H144.024V33.1463H145.195ZM146.366 33.1463V34.3171H145.195V33.1463H146.366ZM147.537 33.1463V34.3171H146.366V33.1463H147.537ZM147.537 34.3171V35.4878H146.366V34.3171H147.537ZM146.366 34.3171V35.4878H145.195V34.3171H146.366ZM148.707 33.1463V34.3171H147.537V33.1463H148.707ZM149.878 33.1463V34.3171H148.707V33.1463H149.878ZM149.878 34.3171V35.4878H148.707V34.3171H149.878ZM148.707 34.3171V35.4878H147.537V34.3171H148.707ZM151.049 34.3171V35.4878H149.878V34.3171H151.049ZM144.024 35.4878V36.6585H142.854V35.4878H144.024ZM144.024 34.3171V35.4878H142.854V34.3171H144.024ZM142.854 34.3171V35.4878H141.683V34.3171H142.854ZM141.683 34.3171V35.4878H140.512V34.3171H141.683ZM141.683 33.1463V34.3171H140.512V33.1463H141.683ZM140.512 33.1463V34.3171H139.341V33.1463H140.512ZM140.512 31.9756V33.1463H139.341V31.9756H140.512ZM140.512 30.8049V31.9756H139.341V30.8049H140.512ZM141.683 30.8049V31.9756H140.512V30.8049H141.683ZM139.341 30.8049V31.9756H138.171V30.8049H139.341ZM139.341 29.6341V30.8049H138.171V29.6341H139.341ZM140.512 29.6341V30.8049H139.341V29.6341H140.512ZM144.024 31.9756V33.1463H142.854V31.9756H144.024ZM145.195 31.9756V33.1463H144.024V31.9756H145.195ZM145.195 30.8049V31.9756H144.024V30.8049H145.195ZM144.024 30.8049V31.9756H142.854V30.8049H144.024ZM142.854 30.8049V31.9756H141.683V30.8049H142.854ZM142.854 31.9756V33.1463H141.683V31.9756H142.854ZM142.854 33.1463V34.3171H141.683V33.1463H142.854ZM144.024 33.1463V34.3171H142.854V33.1463H144.024ZM141.683 31.9756V33.1463H140.512V31.9756H141.683ZM142.854 29.6341V30.8049H141.683V29.6341H142.854ZM144.024 29.6341V30.8049H142.854V29.6341H144.024ZM144.024 28.4634V29.6341H142.854V28.4634H144.024ZM144.024 27.2927V28.4634H142.854V27.2927H144.024ZM144.024 26.122V27.2927H142.854V26.122H144.024ZM144.024 24.9512V26.122H142.854V24.9512H144.024ZM144.024 23.7805V24.9512H142.854V23.7805H144.024ZM144.024 22.6098V23.7805H142.854V22.6098H144.024ZM142.854 22.6098V23.7805H141.683V22.6098H142.854ZM141.683 22.6098V23.7805H140.512V22.6098H141.683ZM140.512 22.6098V23.7805H139.341V22.6098H140.512ZM140.512 21.439V22.6098H139.341V21.439H140.512ZM139.341 21.439V22.6098H138.171V21.439H139.341ZM139.341 22.6098V23.7805H138.171V22.6098H139.341ZM139.341 23.7805V24.9512H138.171V23.7805H139.341ZM139.341 24.9512V26.122H138.171V24.9512H139.341ZM139.341 26.122V27.2927H138.171V26.122H139.341ZM139.341 27.2927V28.4634H138.171V27.2927H139.341ZM139.341 28.4634V29.6341H138.171V28.4634H139.341ZM141.683 29.6341V30.8049H140.512V29.6341H141.683ZM142.854 28.4634V29.6341H141.683V28.4634H142.854ZM142.854 27.2927V28.4634H141.683V27.2927H142.854ZM142.854 26.122V27.2927H141.683V26.122H142.854ZM142.854 24.9512V26.122H141.683V24.9512H142.854ZM142.854 23.7805V24.9512H141.683V23.7805H142.854ZM141.683 23.7805V24.9512H140.512V23.7805H141.683ZM140.512 23.7805V24.9512H139.341V23.7805H140.512ZM140.512 24.9512V26.122H139.341V24.9512H140.512ZM140.512 28.4634V29.6341H139.341V28.4634H140.512ZM140.512 27.2927V28.4634H139.341V27.2927H140.512ZM141.683 27.2927V28.4634H140.512V27.2927H141.683ZM141.683 26.122V27.2927H140.512V26.122H141.683ZM141.683 24.9512V26.122H140.512V24.9512H141.683ZM140.512 26.122V27.2927H139.341V26.122H140.512ZM141.683 28.4634V29.6341H140.512V28.4634H141.683ZM149.878 16.7561V17.9268H148.707V16.7561H149.878ZM148.707 16.7561V17.9268H147.537V16.7561H148.707ZM147.537 16.7561V17.9268H146.366V16.7561H147.537ZM146.366 16.7561V17.9268H145.195V16.7561H146.366ZM145.195 16.7561V17.9268H144.024V16.7561H145.195ZM144.024 16.7561V17.9268H142.854V16.7561H144.024ZM144.024 17.9268V19.0976H142.854V17.9268H144.024ZM142.854 17.9268V19.0976H141.683V17.9268H142.854ZM141.683 17.9268V19.0976H140.512V17.9268H141.683ZM141.683 19.0976V20.2683H140.512V19.0976H141.683ZM140.512 19.0976V20.2683H139.341V19.0976H140.512ZM141.683 20.2683V21.439H140.512V20.2683H141.683ZM141.683 21.439V22.6098H140.512V21.439H141.683ZM140.512 20.2683V21.439H139.341V20.2683H140.512ZM142.854 20.2683V21.439H141.683V20.2683H142.854ZM144.024 20.2683V21.439H142.854V20.2683H144.024ZM144.024 21.439V22.6098H142.854V21.439H144.024ZM145.195 21.439V22.6098H144.024V21.439H145.195ZM142.854 21.439V22.6098H141.683V21.439H142.854ZM144.024 19.0976V20.2683H142.854V19.0976H144.024ZM142.854 19.0976V20.2683H141.683V19.0976H142.854ZM145.195 19.0976V20.2683H144.024V19.0976H145.195ZM145.195 20.2683V21.439H144.024V20.2683H145.195ZM146.366 20.2683V21.439H145.195V20.2683H146.366ZM146.366 19.0976V20.2683H145.195V19.0976H146.366ZM147.537 19.0976V20.2683H146.366V19.0976H147.537ZM148.707 19.0976V20.2683H147.537V19.0976H148.707ZM149.878 19.0976V20.2683H148.707V19.0976H149.878ZM151.049 19.0976V20.2683H149.878V19.0976H151.049ZM151.049 20.2683V21.439H149.878V20.2683H151.049ZM149.878 20.2683V21.439H148.707V20.2683H149.878ZM148.707 20.2683V21.439H147.537V20.2683H148.707ZM147.537 20.2683V21.439H146.366V20.2683H147.537ZM145.195 17.9268V19.0976H144.024V17.9268H145.195ZM146.366 17.9268V19.0976H145.195V17.9268H146.366ZM147.537 17.9268V19.0976H146.366V17.9268H147.537ZM148.707 17.9268V19.0976H147.537V17.9268H148.707ZM149.878 17.9268V19.0976H148.707V17.9268H149.878ZM151.049 17.9268V19.0976H149.878V17.9268H151.049ZM151.049 16.7561V17.9268H149.878V16.7561H151.049ZM151.049 30.8049V31.9756H149.878V30.8049H151.049ZM174.485 23.7805V24.9512H173.314V23.7805H174.485ZM175.656 23.7805V24.9512H174.485V23.7805H175.656ZM176.827 23.7805V24.9512H175.656V23.7805H176.827ZM177.997 23.7805V24.9512H176.827V23.7805H177.997ZM179.168 23.7805V24.9512H177.997V23.7805H179.168ZM179.168 22.6098V23.7805H177.997V22.6098H179.168ZM179.168 21.439V22.6098H177.997V21.439H179.168ZM177.997 21.439V22.6098H176.827V21.439H177.997ZM176.827 21.439V22.6098H175.656V21.439H176.827ZM175.656 21.439V22.6098H174.485V21.439H175.656ZM175.656 22.6098V23.7805H174.485V22.6098H175.656ZM174.485 22.6098V23.7805H173.314V22.6098H174.485ZM176.827 22.6098V23.7805H175.656V22.6098H176.827ZM177.997 22.6098V23.7805H176.827V22.6098H177.997ZM174.485 21.439V22.6098H173.314V21.439H174.485ZM173.314 21.439V22.6098H172.144V21.439H173.314ZM173.314 20.2683V21.439H172.144V20.2683H173.314ZM174.485 20.2683V21.439H173.314V20.2683H174.485ZM175.656 20.2683V21.439H174.485V20.2683H175.656ZM176.827 20.2683V21.439H175.656V20.2683H176.827ZM177.997 20.2683V21.439H176.827V20.2683H177.997ZM177.997 19.0976V20.2683H176.827V19.0976H177.997ZM176.827 19.0976V20.2683H175.656V19.0976H176.827ZM175.656 19.0976V20.2683H174.485V19.0976H175.656ZM174.485 19.0976V20.2683H173.314V19.0976H174.485ZM173.314 19.0976V20.2683H172.144V19.0976H173.314ZM175.656 17.9268V19.0976H174.485V17.9268H175.656ZM176.827 17.9268V19.0976H175.656V17.9268H176.827ZM174.485 17.9268V19.0976H173.314V17.9268H174.485ZM174.485 16.7561V17.9268H173.314V16.7561H174.485ZM173.314 16.7561V17.9268H172.144V16.7561H173.314ZM173.314 17.9268V19.0976H172.144V17.9268H173.314ZM172.144 17.9268V19.0976H170.973V17.9268H172.144ZM172.144 16.7561V17.9268H170.973V16.7561H172.144ZM172.144 19.0976V20.2683H170.973V19.0976H172.144ZM170.973 19.0976V20.2683H169.802V19.0976H170.973ZM170.973 20.2683V21.439H169.802V20.2683H170.973ZM172.144 20.2683V21.439H170.973V20.2683H172.144ZM169.802 20.2683V21.439H168.631V20.2683H169.802ZM169.802 19.0976V20.2683H168.631V19.0976H169.802ZM169.802 17.9268V19.0976H168.631V17.9268H169.802ZM169.802 16.7561V17.9268H168.631V16.7561H169.802ZM170.973 16.7561V17.9268H169.802V16.7561H170.973ZM170.973 17.9268V19.0976H169.802V17.9268H170.973ZM168.631 16.7561V17.9268H167.461V16.7561H168.631ZM167.461 16.7561V17.9268H166.29V16.7561H167.461ZM166.29 16.7561V17.9268H165.119V16.7561H166.29ZM166.29 17.9268V19.0976H165.119V17.9268H166.29ZM166.29 19.0976V20.2683H165.119V19.0976H166.29ZM166.29 20.2683V21.439H165.119V20.2683H166.29ZM167.461 20.2683V21.439H166.29V20.2683H167.461ZM168.631 20.2683V21.439H167.461V20.2683H168.631ZM168.631 19.0976V20.2683H167.461V19.0976H168.631ZM168.631 17.9268V19.0976H167.461V17.9268H168.631ZM167.461 17.9268V19.0976H166.29V17.9268H167.461ZM167.461 19.0976V20.2683H166.29V19.0976H167.461ZM165.119 19.0976V20.2683H163.949V19.0976H165.119ZM165.119 17.9268V19.0976H163.949V17.9268H165.119ZM163.949 17.9268V19.0976H162.778V17.9268H163.949ZM163.949 19.0976V20.2683H162.778V19.0976H163.949ZM162.778 19.0976V20.2683H161.607V19.0976H162.778ZM162.778 20.2683V21.439H161.607V20.2683H162.778ZM162.778 21.439V22.6098H161.607V21.439H162.778ZM163.949 21.439V22.6098H162.778V21.439H163.949ZM163.949 20.2683V21.439H162.778V20.2683H163.949ZM165.119 20.2683V21.439H163.949V20.2683H165.119ZM165.119 21.439V22.6098H163.949V21.439H165.119ZM166.29 21.439V22.6098H165.119V21.439H166.29ZM167.461 21.439V22.6098H166.29V21.439H167.461ZM161.607 21.439V22.6098H160.436V21.439H161.607ZM161.607 22.6098V23.7805H160.436V22.6098H161.607ZM161.607 23.7805V24.9512H160.436V23.7805H161.607ZM161.607 24.9512V26.122H160.436V24.9512H161.607ZM161.607 26.122V27.2927H160.436V26.122H161.607ZM161.607 27.2927V28.4634H160.436V27.2927H161.607ZM161.607 28.4634V29.6341H160.436V28.4634H161.607ZM161.607 29.6341V30.8049H160.436V29.6341H161.607ZM161.607 30.8049V31.9756H160.436V30.8049H161.607ZM161.607 31.9756V33.1463H160.436V31.9756H161.607ZM162.778 31.9756V33.1463H161.607V31.9756H162.778ZM162.778 33.1463V34.3171H161.607V33.1463H162.778ZM161.607 33.1463V34.3171H160.436V33.1463H161.607ZM163.949 33.1463V34.3171H162.778V33.1463H163.949ZM165.119 33.1463V34.3171H163.949V33.1463H165.119ZM166.29 33.1463V34.3171H165.119V33.1463H166.29ZM167.461 33.1463V34.3171H166.29V33.1463H167.461ZM166.29 31.9756V33.1463H165.119V31.9756H166.29ZM166.29 30.8049V31.9756H165.119V30.8049H166.29ZM166.29 29.6341V30.8049H165.119V29.6341H166.29ZM166.29 28.4634V29.6341H165.119V28.4634H166.29ZM166.29 27.2927V28.4634H165.119V27.2927H166.29ZM166.29 26.122V27.2927H165.119V26.122H166.29ZM166.29 24.9512V26.122H165.119V24.9512H166.29ZM166.29 23.7805V24.9512H165.119V23.7805H166.29ZM166.29 22.6098V23.7805H165.119V22.6098H166.29ZM165.119 22.6098V23.7805H163.949V22.6098H165.119ZM163.949 22.6098V23.7805H162.778V22.6098H163.949ZM162.778 22.6098V23.7805H161.607V22.6098H162.778ZM162.778 23.7805V24.9512H161.607V23.7805H162.778ZM162.778 24.9512V26.122H161.607V24.9512H162.778ZM162.778 26.122V27.2927H161.607V26.122H162.778ZM162.778 27.2927V28.4634H161.607V27.2927H162.778ZM162.778 28.4634V29.6341H161.607V28.4634H162.778ZM162.778 29.6341V30.8049H161.607V29.6341H162.778ZM162.778 30.8049V31.9756H161.607V30.8049H162.778ZM163.949 31.9756V33.1463H162.778V31.9756H163.949ZM165.119 31.9756V33.1463H163.949V31.9756H165.119ZM165.119 30.8049V31.9756H163.949V30.8049H165.119ZM165.119 29.6341V30.8049H163.949V29.6341H165.119ZM165.119 28.4634V29.6341H163.949V28.4634H165.119ZM165.119 27.2927V28.4634H163.949V27.2927H165.119ZM163.949 27.2927V28.4634H162.778V27.2927H163.949ZM163.949 26.122V27.2927H162.778V26.122H163.949ZM163.949 24.9512V26.122H162.778V24.9512H163.949ZM163.949 23.7805V24.9512H162.778V23.7805H163.949ZM165.119 23.7805V24.9512H163.949V23.7805H165.119ZM165.119 24.9512V26.122H163.949V24.9512H165.119ZM165.119 26.122V27.2927H163.949V26.122H165.119ZM163.949 29.6341V30.8049H162.778V29.6341H163.949ZM163.949 30.8049V31.9756H162.778V30.8049H163.949ZM163.949 28.4634V29.6341H162.778V28.4634H163.949ZM174.485 31.9756V33.1463H173.314V31.9756H174.485ZM175.656 31.9756V33.1463H174.485V31.9756H175.656ZM176.827 31.9756V33.1463H175.656V31.9756H176.827ZM177.997 31.9756V33.1463H176.827V31.9756H177.997ZM179.168 31.9756V33.1463H177.997V31.9756H179.168ZM179.168 33.1463V34.3171H177.997V33.1463H179.168ZM177.997 33.1463V34.3171H176.827V33.1463H177.997ZM176.827 33.1463V34.3171H175.656V33.1463H176.827ZM175.656 33.1463V34.3171H174.485V33.1463H175.656ZM174.485 33.1463V34.3171H173.314V33.1463H174.485ZM173.314 33.1463V34.3171H172.144V33.1463H173.314ZM173.314 34.3171V35.4878H172.144V34.3171H173.314ZM174.485 34.3171V35.4878H173.314V34.3171H174.485ZM175.656 34.3171V35.4878H174.485V34.3171H175.656ZM176.827 34.3171V35.4878H175.656V34.3171H176.827ZM176.827 35.4878V36.6585H175.656V35.4878H176.827ZM177.997 35.4878V36.6585H176.827V35.4878H177.997ZM177.997 34.3171V35.4878H176.827V34.3171H177.997ZM176.827 36.6585V37.8293H175.656V36.6585H176.827ZM175.656 36.6585V37.8293H174.485V36.6585H175.656ZM175.656 35.4878V36.6585H174.485V35.4878H175.656ZM174.485 35.4878V36.6585H173.314V35.4878H174.485ZM174.485 36.6585V37.8293H173.314V36.6585H174.485ZM174.485 37.8293V39H173.314V37.8293H174.485ZM173.314 37.8293V39H172.144V37.8293H173.314ZM172.144 37.8293V39H170.973V37.8293H172.144ZM170.973 37.8293V39H169.802V37.8293H170.973ZM169.802 37.8293V39H168.631V37.8293H169.802ZM168.631 37.8293V39H167.461V37.8293H168.631ZM167.461 37.8293V39H166.29V37.8293H167.461ZM166.29 37.8293V39H165.119V37.8293H166.29ZM167.461 36.6585V37.8293H166.29V36.6585H167.461ZM168.631 36.6585V37.8293H167.461V36.6585H168.631ZM169.802 36.6585V37.8293H168.631V36.6585H169.802ZM170.973 36.6585V37.8293H169.802V36.6585H170.973ZM172.144 36.6585V37.8293H170.973V36.6585H172.144ZM173.314 36.6585V37.8293H172.144V36.6585H173.314ZM173.314 35.4878V36.6585H172.144V35.4878H173.314ZM172.144 35.4878V36.6585H170.973V35.4878H172.144ZM170.973 35.4878V36.6585H169.802V35.4878H170.973ZM169.802 35.4878V36.6585H168.631V35.4878H169.802ZM168.631 35.4878V36.6585H167.461V35.4878H168.631ZM167.461 35.4878V36.6585H166.29V35.4878H167.461ZM166.29 36.6585V37.8293H165.119V36.6585H166.29ZM165.119 36.6585V37.8293H163.949V36.6585H165.119ZM163.949 36.6585V37.8293H162.778V36.6585H163.949ZM163.949 35.4878V36.6585H162.778V35.4878H163.949ZM162.778 35.4878V36.6585H161.607V35.4878H162.778ZM162.778 34.3171V35.4878H161.607V34.3171H162.778ZM163.949 34.3171V35.4878H162.778V34.3171H163.949ZM165.119 34.3171V35.4878H163.949V34.3171H165.119ZM166.29 34.3171V35.4878H165.119V34.3171H166.29ZM167.461 34.3171V35.4878H166.29V34.3171H167.461ZM168.631 34.3171V35.4878H167.461V34.3171H168.631ZM169.802 34.3171V35.4878H168.631V34.3171H169.802ZM170.973 34.3171V35.4878H169.802V34.3171H170.973ZM172.144 34.3171V35.4878H170.973V34.3171H172.144ZM166.29 35.4878V36.6585H165.119V35.4878H166.29ZM165.119 35.4878V36.6585H163.949V35.4878H165.119ZM179.168 24.9512V26.122H177.997V24.9512H179.168ZM177.997 24.9512V26.122H176.827V24.9512H177.997ZM176.827 24.9512V26.122H175.656V24.9512H176.827ZM175.656 24.9512V26.122H174.485V24.9512H175.656ZM174.485 24.9512V26.122H173.314V24.9512H174.485ZM179.168 26.122V27.2927H177.997V26.122H179.168ZM176.827 26.122V27.2927H175.656V26.122H176.827ZM175.656 26.122V27.2927H174.485V26.122H175.656ZM173.314 26.122V27.2927H172.144V26.122H173.314ZM172.144 26.122V27.2927H170.973V26.122H172.144ZM170.973 26.122V27.2927H169.802V26.122H170.973ZM169.802 26.122V27.2927H168.631V26.122H169.802ZM168.631 26.122V27.2927H167.461V26.122H168.631ZM167.461 26.122V27.2927H166.29V26.122H167.461ZM174.485 26.122V27.2927H173.314V26.122H174.485ZM177.997 26.122V27.2927H176.827V26.122H177.997ZM179.168 27.2927V28.4634H177.997V27.2927H179.168ZM177.997 27.2927V28.4634H176.827V27.2927H177.997ZM176.827 27.2927V28.4634H175.656V27.2927H176.827ZM175.656 27.2927V28.4634H174.485V27.2927H175.656ZM174.485 27.2927V28.4634H173.314V27.2927H174.485ZM173.314 27.2927V28.4634H172.144V27.2927H173.314ZM172.144 27.2927V28.4634H170.973V27.2927H172.144ZM170.973 27.2927V28.4634H169.802V27.2927H170.973ZM169.802 27.2927V28.4634H168.631V27.2927H169.802ZM168.631 27.2927V28.4634H167.461V27.2927H168.631ZM167.461 27.2927V28.4634H166.29V27.2927H167.461ZM167.461 28.4634V29.6341H166.29V28.4634H167.461ZM168.631 28.4634V29.6341H167.461V28.4634H168.631ZM169.802 28.4634V29.6341H168.631V28.4634H169.802ZM172.144 28.4634V29.6341H170.973V28.4634H172.144ZM173.314 28.4634V29.6341H172.144V28.4634H173.314ZM174.485 28.4634V29.6341H173.314V28.4634H174.485ZM175.656 28.4634V29.6341H174.485V28.4634H175.656ZM176.827 28.4634V29.6341H175.656V28.4634H176.827ZM177.997 28.4634V29.6341H176.827V28.4634H177.997ZM179.168 28.4634V29.6341H177.997V28.4634H179.168ZM170.973 28.4634V29.6341H169.802V28.4634H170.973ZM183.872 20.2683V21.439H182.701V20.2683H183.872ZM185.042 20.2683V21.439H183.872V20.2683H185.042ZM186.213 20.2683V21.439H185.042V20.2683H186.213ZM187.384 20.2683V21.439H186.213V20.2683H187.384ZM188.554 20.2683V21.439H187.384V20.2683H188.554ZM189.725 20.2683V21.439H188.554V20.2683H189.725ZM190.896 20.2683V21.439H189.725V20.2683H190.896ZM192.067 20.2683V21.439H190.896V20.2683H192.067ZM193.237 20.2683V21.439H192.067V20.2683H193.237ZM194.408 20.2683V21.439H193.237V20.2683H194.408ZM195.579 20.2683V21.439H194.408V20.2683H195.579ZM190.896 23.7805V24.9512H189.725V23.7805H190.896ZM189.725 23.7805V24.9512H188.554V23.7805H189.725ZM188.554 23.7805V24.9512H187.384V23.7805H188.554ZM187.384 23.7805V24.9512H186.213V23.7805H187.384ZM187.384 22.6098V23.7805H186.213V22.6098H187.384ZM186.213 22.6098V23.7805H185.042V22.6098H186.213ZM186.213 23.7805V24.9512H185.042V23.7805H186.213ZM186.213 21.439V22.6098H185.042V21.439H186.213ZM187.384 21.439V22.6098H186.213V21.439H187.384ZM188.554 21.439V22.6098H187.384V21.439H188.554ZM189.725 21.439V22.6098H188.554V21.439H189.725ZM190.896 21.439V22.6098H189.725V21.439H190.896ZM190.896 22.6098V23.7805H189.725V22.6098H190.896ZM189.725 22.6098V23.7805H188.554V22.6098H189.725ZM188.554 22.6098V23.7805H187.384V22.6098H188.554ZM195.579 9.73171V10.9024H194.408V9.73171H195.579ZM195.579 10.9024V12.0732H194.408V10.9024H195.579ZM195.579 12.0732V13.2439H194.408V12.0732H195.579ZM195.579 13.2439V14.4146H194.408V13.2439H195.579ZM194.408 13.2439V14.4146H193.237V13.2439H194.408ZM193.237 13.2439V14.4146H192.067V13.2439H193.237ZM192.067 13.2439V14.4146H190.896V13.2439H192.067ZM192.067 14.4146V15.5854H190.896V14.4146H192.067ZM190.896 14.4146V15.5854H189.725V14.4146H190.896ZM189.725 14.4146V15.5854H188.554V14.4146H189.725ZM188.554 14.4146V15.5854H187.384V14.4146H188.554ZM188.554 13.2439V14.4146H187.384V13.2439H188.554ZM187.384 13.2439V14.4146H186.213V13.2439H187.384ZM187.384 12.0732V13.2439H186.213V12.0732H187.384ZM188.554 12.0732V13.2439H187.384V12.0732H188.554ZM189.725 12.0732V13.2439H188.554V12.0732H189.725ZM189.725 10.9024V12.0732H188.554V10.9024H189.725ZM188.554 10.9024V12.0732H187.384V10.9024H188.554ZM190.896 10.9024V12.0732H189.725V10.9024H190.896ZM192.067 10.9024V12.0732H190.896V10.9024H192.067ZM192.067 9.73171V10.9024H190.896V9.73171H192.067ZM190.896 9.73171V10.9024H189.725V9.73171H190.896ZM193.237 9.73171V10.9024H192.067V9.73171H193.237ZM194.408 9.73171V10.9024H193.237V9.73171H194.408ZM194.408 10.9024V12.0732H193.237V10.9024H194.408ZM194.408 12.0732V13.2439H193.237V12.0732H194.408ZM193.237 12.0732V13.2439H192.067V12.0732H193.237ZM193.237 10.9024V12.0732H192.067V10.9024H193.237ZM192.067 12.0732V13.2439H190.896V12.0732H192.067ZM190.896 12.0732V13.2439H189.725V12.0732H190.896ZM189.725 13.2439V14.4146H188.554V13.2439H189.725ZM190.896 13.2439V14.4146H189.725V13.2439H190.896ZM186.213 14.4146V15.5854H185.042V14.4146H186.213ZM187.384 14.4146V15.5854H186.213V14.4146H187.384ZM187.384 15.5854V16.7561H186.213V15.5854H187.384ZM186.213 15.5854V16.7561H185.042V15.5854H186.213ZM186.213 16.7561V17.9268H185.042V16.7561H186.213ZM186.213 17.9268V19.0976H185.042V17.9268H186.213ZM186.213 19.0976V20.2683H185.042V19.0976H186.213ZM187.384 19.0976V20.2683H186.213V19.0976H187.384ZM188.554 19.0976V20.2683H187.384V19.0976H188.554ZM187.384 17.9268V19.0976H186.213V17.9268H187.384ZM187.384 16.7561V17.9268H186.213V16.7561H187.384ZM188.554 15.5854V16.7561H187.384V15.5854H188.554ZM189.725 15.5854V16.7561H188.554V15.5854H189.725ZM189.725 16.7561V17.9268H188.554V16.7561H189.725ZM189.725 17.9268V19.0976H188.554V17.9268H189.725ZM189.725 19.0976V20.2683H188.554V19.0976H189.725ZM190.896 16.7561V17.9268H189.725V16.7561H190.896ZM190.896 15.5854V16.7561H189.725V15.5854H190.896ZM190.896 17.9268V19.0976H189.725V17.9268H190.896ZM190.896 19.0976V20.2683H189.725V19.0976H190.896ZM188.554 17.9268V19.0976H187.384V17.9268H188.554ZM188.554 16.7561V17.9268H187.384V16.7561H188.554ZM186.213 24.9512V26.122H185.042V24.9512H186.213ZM187.384 24.9512V26.122H186.213V24.9512H187.384ZM188.554 24.9512V26.122H187.384V24.9512H188.554ZM189.725 24.9512V26.122H188.554V24.9512H189.725ZM190.896 24.9512V26.122H189.725V24.9512H190.896ZM190.896 26.122V27.2927H189.725V26.122H190.896ZM188.554 26.122V27.2927H187.384V26.122H188.554ZM187.384 26.122V27.2927H186.213V26.122H187.384ZM186.213 26.122V27.2927H185.042V26.122H186.213ZM189.725 26.122V27.2927H188.554V26.122H189.725ZM186.213 37.8293V39H185.042V37.8293H186.213ZM186.213 36.6585V37.8293H185.042V36.6585H186.213ZM186.213 35.4878V36.6585H185.042V35.4878H186.213ZM186.213 34.3171V35.4878H185.042V34.3171H186.213ZM186.213 33.1463V34.3171H185.042V33.1463H186.213ZM186.213 31.9756V33.1463H185.042V31.9756H186.213ZM186.213 30.8049V31.9756H185.042V30.8049H186.213ZM187.384 30.8049V31.9756H186.213V30.8049H187.384ZM187.384 29.6341V30.8049H186.213V29.6341H187.384ZM187.384 28.4634V29.6341H186.213V28.4634H187.384ZM187.384 27.2927V28.4634H186.213V27.2927H187.384ZM186.213 28.4634V29.6341H185.042V28.4634H186.213ZM186.213 29.6341V30.8049H185.042V29.6341H186.213ZM186.213 27.2927V28.4634H185.042V27.2927H186.213ZM190.896 27.2927V28.4634H189.725V27.2927H190.896ZM190.896 28.4634V29.6341H189.725V28.4634H190.896ZM190.896 29.6341V30.8049H189.725V29.6341H190.896ZM190.896 30.8049V31.9756H189.725V30.8049H190.896ZM190.896 31.9756V33.1463H189.725V31.9756H190.896ZM190.896 33.1463V34.3171H189.725V33.1463H190.896ZM190.896 34.3171V35.4878H189.725V34.3171H190.896ZM190.896 35.4878V36.6585H189.725V35.4878H190.896ZM190.896 36.6585V37.8293H189.725V36.6585H190.896ZM190.896 37.8293V39H189.725V37.8293H190.896ZM189.725 37.8293V39H188.554V37.8293H189.725ZM188.554 37.8293V39H187.384V37.8293H188.554ZM187.384 37.8293V39H186.213V37.8293H187.384ZM187.384 36.6585V37.8293H186.213V36.6585H187.384ZM188.554 36.6585V37.8293H187.384V36.6585H188.554ZM189.725 36.6585V37.8293H188.554V36.6585H189.725ZM189.725 35.4878V36.6585H188.554V35.4878H189.725ZM188.554 35.4878V36.6585H187.384V35.4878H188.554ZM187.384 35.4878V36.6585H186.213V35.4878H187.384ZM188.554 34.3171V35.4878H187.384V34.3171H188.554ZM189.725 34.3171V35.4878H188.554V34.3171H189.725ZM187.384 34.3171V35.4878H186.213V34.3171H187.384ZM187.384 33.1463V34.3171H186.213V33.1463H187.384ZM187.384 31.9756V33.1463H186.213V31.9756H187.384ZM188.554 31.9756V33.1463H187.384V31.9756H188.554ZM188.554 33.1463V34.3171H187.384V33.1463H188.554ZM189.725 33.1463V34.3171H188.554V33.1463H189.725ZM189.725 30.8049V31.9756H188.554V30.8049H189.725ZM189.725 29.6341V30.8049H188.554V29.6341H189.725ZM189.725 28.4634V29.6341H188.554V28.4634H189.725ZM189.725 27.2927V28.4634H188.554V27.2927H189.725ZM188.554 27.2927V28.4634H187.384V27.2927H188.554ZM188.554 28.4634V29.6341H187.384V28.4634H188.554ZM188.554 29.6341V30.8049H187.384V29.6341H188.554ZM188.554 30.8049V31.9756H187.384V30.8049H188.554ZM189.725 31.9756V33.1463H188.554V31.9756H189.725ZM192.067 17.9268V19.0976H190.896V17.9268H192.067ZM193.237 17.9268V19.0976H192.067V17.9268H193.237ZM194.408 17.9268V19.0976H193.237V17.9268H194.408ZM195.579 17.9268V19.0976H194.408V17.9268H195.579ZM195.579 19.0976V20.2683H194.408V19.0976H195.579ZM194.408 19.0976V20.2683H193.237V19.0976H194.408ZM193.237 19.0976V20.2683H192.067V19.0976H193.237ZM192.067 19.0976V20.2683H190.896V19.0976H192.067ZM183.872 17.9268V19.0976H182.701V17.9268H183.872ZM185.042 17.9268V19.0976H183.872V17.9268H185.042ZM185.042 19.0976V20.2683H183.872V19.0976H185.042ZM183.872 19.0976V20.2683H182.701V19.0976H183.872ZM195.579 21.439V22.6098H194.408V21.439H195.579ZM194.408 21.439V22.6098H193.237V21.439H194.408ZM193.237 21.439V22.6098H192.067V21.439H193.237ZM192.067 21.439V22.6098H190.896V21.439H192.067ZM185.042 21.439V22.6098H183.872V21.439H185.042ZM183.872 21.439V22.6098H182.701V21.439H183.872ZM200.278 16.7561V17.9268H199.107V16.7561H200.278ZM201.449 16.7561V17.9268H200.278V16.7561H201.449ZM202.619 16.7561V17.9268H201.449V16.7561H202.619ZM203.79 16.7561V17.9268H202.619V16.7561H203.79ZM203.79 17.9268V19.0976H202.619V17.9268H203.79ZM204.961 17.9268V19.0976H203.79V17.9268H204.961ZM204.961 19.0976V20.2683H203.79V19.0976H204.961ZM204.961 16.7561V17.9268H203.79V16.7561H204.961ZM204.961 20.2683V21.439H203.79V20.2683H204.961ZM204.961 21.439V22.6098H203.79V21.439H204.961ZM204.961 22.6098V23.7805H203.79V22.6098H204.961ZM204.961 23.7805V24.9512H203.79V23.7805H204.961ZM204.961 24.9512V26.122H203.79V24.9512H204.961ZM204.961 26.122V27.2927H203.79V26.122H204.961ZM204.961 27.2927V28.4634H203.79V27.2927H204.961ZM204.961 28.4634V29.6341H203.79V28.4634H204.961ZM204.961 29.6341V30.8049H203.79V29.6341H204.961ZM203.79 29.6341V30.8049H202.619V29.6341H203.79ZM202.619 30.8049V31.9756H201.449V30.8049H202.619ZM201.449 30.8049V31.9756H200.278V30.8049H201.449ZM200.278 30.8049V31.9756H199.107V30.8049H200.278ZM200.278 29.6341V30.8049H199.107V29.6341H200.278ZM200.278 28.4634V29.6341H199.107V28.4634H200.278ZM200.278 27.2927V28.4634H199.107V27.2927H200.278ZM200.278 26.122V27.2927H199.107V26.122H200.278ZM201.449 26.122V27.2927H200.278V26.122H201.449ZM201.449 24.9512V26.122H200.278V24.9512H201.449ZM201.449 23.7805V24.9512H200.278V23.7805H201.449ZM201.449 22.6098V23.7805H200.278V22.6098H201.449ZM201.449 21.439V22.6098H200.278V21.439H201.449ZM201.449 20.2683V21.439H200.278V20.2683H201.449ZM201.449 19.0976V20.2683H200.278V19.0976H201.449ZM201.449 17.9268V19.0976H200.278V17.9268H201.449ZM200.278 17.9268V19.0976H199.107V17.9268H200.278ZM200.278 19.0976V20.2683H199.107V19.0976H200.278ZM200.278 20.2683V21.439H199.107V20.2683H200.278ZM200.278 21.439V22.6098H199.107V21.439H200.278ZM200.278 22.6098V23.7805H199.107V22.6098H200.278ZM200.278 23.7805V24.9512H199.107V23.7805H200.278ZM200.278 24.9512V26.122H199.107V24.9512H200.278ZM202.619 22.6098V23.7805H201.449V22.6098H202.619ZM202.619 21.439V22.6098H201.449V21.439H202.619ZM202.619 20.2683V21.439H201.449V20.2683H202.619ZM202.619 19.0976V20.2683H201.449V19.0976H202.619ZM202.619 17.9268V19.0976H201.449V17.9268H202.619ZM203.79 22.6098V23.7805H202.619V22.6098H203.79ZM203.79 23.7805V24.9512H202.619V23.7805H203.79ZM203.79 21.439V22.6098H202.619V21.439H203.79ZM203.79 20.2683V21.439H202.619V20.2683H203.79ZM203.79 19.0976V20.2683H202.619V19.0976H203.79ZM202.619 26.122V27.2927H201.449V26.122H202.619ZM202.619 24.9512V26.122H201.449V24.9512H202.619ZM202.619 23.7805V24.9512H201.449V23.7805H202.619ZM203.79 24.9512V26.122H202.619V24.9512H203.79ZM203.79 26.122V27.2927H202.619V26.122H203.79ZM203.79 27.2927V28.4634H202.619V27.2927H203.79ZM202.619 28.4634V29.6341H201.449V28.4634H202.619ZM202.619 29.6341V30.8049H201.449V29.6341H202.619ZM202.619 27.2927V28.4634H201.449V27.2927H202.619ZM201.449 27.2927V28.4634H200.278V27.2927H201.449ZM201.449 28.4634V29.6341H200.278V28.4634H201.449ZM201.449 29.6341V30.8049H200.278V29.6341H201.449ZM203.79 28.4634V29.6341H202.619V28.4634H203.79ZM202.619 31.9756V33.1463H201.449V31.9756H202.619ZM201.449 31.9756V33.1463H200.278V31.9756H201.449ZM203.79 31.9756V33.1463H202.619V31.9756H203.79ZM203.79 30.8049V31.9756H202.619V30.8049H203.79ZM204.961 30.8049V31.9756H203.79V30.8049H204.961ZM206.131 30.8049V31.9756H204.961V30.8049H206.131ZM206.131 31.9756V33.1463H204.961V31.9756H206.131ZM204.961 31.9756V33.1463H203.79V31.9756H204.961ZM207.302 31.9756V33.1463H206.131V31.9756H207.302ZM202.619 33.1463V34.3171H201.449V33.1463H202.619ZM203.79 33.1463V34.3171H202.619V33.1463H203.79ZM204.961 33.1463V34.3171H203.79V33.1463H204.961ZM206.131 33.1463V34.3171H204.961V33.1463H206.131ZM207.302 33.1463V34.3171H206.131V33.1463H207.302ZM208.473 33.1463V34.3171H207.302V33.1463H208.473ZM209.644 33.1463V34.3171H208.473V33.1463H209.644ZM210.814 33.1463V34.3171H209.644V33.1463H210.814ZM211.985 33.1463V34.3171H210.814V33.1463H211.985ZM213.156 33.1463V34.3171H211.985V33.1463H213.156ZM214.327 33.1463V34.3171H213.156V33.1463H214.327ZM215.497 33.1463V34.3171H214.327V33.1463H215.497ZM214.327 31.9756V33.1463H213.156V31.9756H214.327ZM213.156 31.9756V33.1463H211.985V31.9756H213.156ZM211.985 31.9756V33.1463H210.814V31.9756H211.985ZM210.814 31.9756V33.1463H209.644V31.9756H210.814ZM211.985 30.8049V31.9756H210.814V30.8049H211.985ZM213.156 30.8049V31.9756H211.985V30.8049H213.156ZM214.327 30.8049V31.9756H213.156V30.8049H214.327ZM215.497 30.8049V31.9756H214.327V30.8049H215.497ZM216.668 30.8049V31.9756H215.497V30.8049H216.668ZM216.668 31.9756V33.1463H215.497V31.9756H216.668ZM215.497 31.9756V33.1463H214.327V31.9756H215.497ZM217.839 30.8049V31.9756H216.668V30.8049H217.839ZM207.302 37.8293V39H206.131V37.8293H207.302ZM207.302 36.6585V37.8293H206.131V36.6585H207.302ZM207.302 35.4878V36.6585H206.131V35.4878H207.302ZM208.473 35.4878V36.6585H207.302V35.4878H208.473ZM208.473 34.3171V35.4878H207.302V34.3171H208.473ZM209.644 34.3171V35.4878H208.473V34.3171H209.644ZM210.814 34.3171V35.4878H209.644V34.3171H210.814ZM210.814 35.4878V36.6585H209.644V35.4878H210.814ZM210.814 36.6585V37.8293H209.644V36.6585H210.814ZM210.814 37.8293V39H209.644V37.8293H210.814ZM209.644 37.8293V39H208.473V37.8293H209.644ZM208.473 37.8293V39H207.302V37.8293H208.473ZM208.473 36.6585V37.8293H207.302V36.6585H208.473ZM209.644 35.4878V36.6585H208.473V35.4878H209.644ZM209.644 36.6585V37.8293H208.473V36.6585H209.644ZM211.985 35.4878V36.6585H210.814V35.4878H211.985ZM211.985 34.3171V35.4878H210.814V34.3171H211.985ZM213.156 34.3171V35.4878H211.985V34.3171H213.156ZM214.327 34.3171V35.4878H213.156V34.3171H214.327ZM213.156 35.4878V36.6585H211.985V35.4878H213.156ZM211.985 36.6585V37.8293H210.814V36.6585H211.985ZM203.79 34.3171V35.4878H202.619V34.3171H203.79ZM204.961 34.3171V35.4878H203.79V34.3171H204.961ZM204.961 35.4878V36.6585H203.79V35.4878H204.961ZM206.131 35.4878V36.6585H204.961V35.4878H206.131ZM206.131 36.6585V37.8293H204.961V36.6585H206.131ZM207.302 34.3171V35.4878H206.131V34.3171H207.302ZM206.131 34.3171V35.4878H204.961V34.3171H206.131ZM213.156 29.6341V30.8049H211.985V29.6341H213.156ZM213.156 28.4634V29.6341H211.985V28.4634H213.156ZM213.156 27.2927V28.4634H211.985V27.2927H213.156ZM213.156 26.122V27.2927H211.985V26.122H213.156ZM214.327 26.122V27.2927H213.156V26.122H214.327ZM215.497 26.122V27.2927H214.327V26.122H215.497ZM216.668 26.122V27.2927H215.497V26.122H216.668ZM217.839 26.122V27.2927H216.668V26.122H217.839ZM217.839 27.2927V28.4634H216.668V27.2927H217.839ZM217.839 28.4634V29.6341H216.668V28.4634H217.839ZM217.839 29.6341V30.8049H216.668V29.6341H217.839ZM216.668 29.6341V30.8049H215.497V29.6341H216.668ZM215.497 29.6341V30.8049H214.327V29.6341H215.497ZM214.327 29.6341V30.8049H213.156V29.6341H214.327ZM215.497 28.4634V29.6341H214.327V28.4634H215.497ZM216.668 28.4634V29.6341H215.497V28.4634H216.668ZM216.668 27.2927V28.4634H215.497V27.2927H216.668ZM215.497 27.2927V28.4634H214.327V27.2927H215.497ZM214.327 27.2927V28.4634H213.156V27.2927H214.327ZM214.327 28.4634V29.6341H213.156V28.4634H214.327ZM213.156 24.9512V26.122H211.985V24.9512H213.156ZM213.156 23.7805V24.9512H211.985V23.7805H213.156ZM213.156 22.6098V23.7805H211.985V22.6098H213.156ZM213.156 21.439V22.6098H211.985V21.439H213.156ZM213.156 20.2683V21.439H211.985V20.2683H213.156ZM213.156 19.0976V20.2683H211.985V19.0976H213.156ZM213.156 17.9268V19.0976H211.985V17.9268H213.156ZM213.156 16.7561V17.9268H211.985V16.7561H213.156ZM214.327 17.9268V19.0976H213.156V17.9268H214.327ZM214.327 16.7561V17.9268H213.156V16.7561H214.327ZM215.497 16.7561V17.9268H214.327V16.7561H215.497ZM216.668 16.7561V17.9268H215.497V16.7561H216.668ZM216.668 17.9268V19.0976H215.497V17.9268H216.668ZM216.668 19.0976V20.2683H215.497V19.0976H216.668ZM217.839 19.0976V20.2683H216.668V19.0976H217.839ZM217.839 20.2683V21.439H216.668V20.2683H217.839ZM217.839 21.439V22.6098H216.668V21.439H217.839ZM217.839 22.6098V23.7805H216.668V22.6098H217.839ZM217.839 23.7805V24.9512H216.668V23.7805H217.839ZM217.839 24.9512V26.122H216.668V24.9512H217.839ZM217.839 17.9268V19.0976H216.668V17.9268H217.839ZM217.839 16.7561V17.9268H216.668V16.7561H217.839ZM215.497 17.9268V19.0976H214.327V17.9268H215.497ZM215.497 19.0976V20.2683H214.327V19.0976H215.497ZM215.497 20.2683V21.439H214.327V20.2683H215.497ZM215.497 21.439V22.6098H214.327V21.439H215.497ZM215.497 22.6098V23.7805H214.327V22.6098H215.497ZM215.497 23.7805V24.9512H214.327V23.7805H215.497ZM214.327 23.7805V24.9512H213.156V23.7805H214.327ZM214.327 24.9512V26.122H213.156V24.9512H214.327ZM214.327 22.6098V23.7805H213.156V22.6098H214.327ZM214.327 21.439V22.6098H213.156V21.439H214.327ZM214.327 20.2683V21.439H213.156V20.2683H214.327ZM214.327 19.0976V20.2683H213.156V19.0976H214.327ZM216.668 20.2683V21.439H215.497V20.2683H216.668ZM216.668 21.439V22.6098H215.497V21.439H216.668ZM216.668 22.6098V23.7805H215.497V22.6098H216.668ZM216.668 23.7805V24.9512H215.497V23.7805H216.668ZM216.668 24.9512V26.122H215.497V24.9512H216.668ZM215.497 24.9512V26.122H214.327V24.9512H215.497ZM204.961 37.8293V39H203.79V37.8293H204.961ZM206.131 37.8293V39H204.961V37.8293H206.131ZM207.302 39V40.1707H206.131V39H207.302ZM208.473 39V40.1707H207.302V39H208.473ZM209.644 39V40.1707H208.473V39H209.644ZM206.131 39V40.1707H204.961V39H206.131ZM204.961 39V40.1707H203.79V39H204.961ZM203.79 39V40.1707H202.619V39H203.79ZM203.79 40.1707V41.3415H202.619V40.1707H203.79ZM202.619 40.1707V41.3415H201.449V40.1707H202.619ZM202.619 41.3415V42.5122H201.449V41.3415H202.619ZM201.449 41.3415V42.5122H200.278V41.3415H201.449ZM201.449 42.5122V43.6829H200.278V42.5122H201.449ZM201.449 43.6829V44.8537H200.278V43.6829H201.449ZM201.449 44.8537V46.0244H200.278V44.8537H201.449ZM202.619 44.8537V46.0244H201.449V44.8537H202.619ZM203.79 44.8537V46.0244H202.619V44.8537H203.79ZM203.79 43.6829V44.8537H202.619V43.6829H203.79ZM203.79 42.5122V43.6829H202.619V42.5122H203.79ZM202.619 42.5122V43.6829H201.449V42.5122H202.619ZM202.619 43.6829V44.8537H201.449V43.6829H202.619ZM204.961 42.5122V43.6829H203.79V42.5122H204.961ZM204.961 43.6829V44.8537H203.79V43.6829H204.961ZM206.131 42.5122V43.6829H204.961V42.5122H206.131ZM206.131 41.3415V42.5122H204.961V41.3415H206.131ZM207.302 41.3415V42.5122H206.131V41.3415H207.302ZM207.302 40.1707V41.3415H206.131V40.1707H207.302ZM208.473 40.1707V41.3415H207.302V40.1707H208.473ZM206.131 40.1707V41.3415H204.961V40.1707H206.131ZM204.961 40.1707V41.3415H203.79V40.1707H204.961ZM204.961 41.3415V42.5122H203.79V41.3415H204.961ZM203.79 41.3415V42.5122H202.619V41.3415H203.79Z" fill="white"/>
<line x1="1.5" y1="15.5" x2="31.5" y2="15.5" stroke="white" stroke-width="3" stroke-linecap="round"/>
<path d="M34 7C29.5817 7 26 10.5817 26 15C26 19.4183 29.5817 23 34 23C38.4183 23 42 19.4183 42 15C42 10.5817 38.4183 7 34 7ZM32.5 44C32.5 44.8284 33.1716 45.5 34 45.5C34.8284 45.5 35.5 44.8284 35.5 44L32.5 44ZM32.5 15L32.5 44L35.5 44L35.5 15L32.5 15Z" fill="white"/>
</svg>
